G04 #@! TF.GenerationSoftware,KiCad,Pcbnew,5.0.0-rc1-44a33f2~62~ubuntu17.10.1*
G04 #@! TF.CreationDate,2018-03-28T23:14:57+09:00*
G04 #@! TF.ProjectId,RaspiBBHat,526173706942424861742E6B69636164,rev?*
G04 #@! TF.SameCoordinates,Original*
G04 #@! TF.FileFunction,Copper,L1,Top,Signal*
G04 #@! TF.FilePolarity,Positive*
%FSLAX46Y46*%
G04 Gerber Fmt 4.6, Leading zero omitted, Abs format (unit mm)*
G04 Created by KiCad (PCBNEW 5.0.0-rc1-44a33f2~62~ubuntu17.10.1) date Wed Mar 28 23:14:57 2018*
%MOMM*%
%LPD*%
G01*
G04 APERTURE LIST*
%ADD10R,1.700000X1.700000*%
%ADD11O,1.700000X1.700000*%
%ADD12C,0.800000*%
%ADD13C,0.250000*%
%ADD14C,0.254000*%
G04 APERTURE END LIST*
D10*
X78105000Y-81280000D03*
D11*
X78105000Y-78740000D03*
X78105000Y-76200000D03*
X78105000Y-124460000D03*
X78105000Y-121920000D03*
D10*
X78105000Y-119380000D03*
X123825000Y-76200000D03*
D11*
X126365000Y-76200000D03*
X123825000Y-78740000D03*
X126365000Y-78740000D03*
X123825000Y-81280000D03*
X126365000Y-81280000D03*
X123825000Y-83820000D03*
X126365000Y-83820000D03*
X123825000Y-86360000D03*
X126365000Y-86360000D03*
X123825000Y-88900000D03*
X126365000Y-88900000D03*
X123825000Y-91440000D03*
X126365000Y-91440000D03*
X123825000Y-93980000D03*
X126365000Y-93980000D03*
X123825000Y-96520000D03*
X126365000Y-96520000D03*
X123825000Y-99060000D03*
X126365000Y-99060000D03*
X123825000Y-101600000D03*
X126365000Y-101600000D03*
X123825000Y-104140000D03*
X126365000Y-104140000D03*
X123825000Y-106680000D03*
X126365000Y-106680000D03*
X123825000Y-109220000D03*
X126365000Y-109220000D03*
X123825000Y-111760000D03*
X126365000Y-111760000D03*
X123825000Y-114300000D03*
X126365000Y-114300000D03*
X123825000Y-116840000D03*
X126365000Y-116840000D03*
X123825000Y-119380000D03*
X126365000Y-119380000D03*
X123825000Y-121920000D03*
X126365000Y-121920000D03*
X123825000Y-124460000D03*
X126365000Y-124460000D03*
D10*
X118745000Y-81280000D03*
D11*
X116205000Y-81280000D03*
X113665000Y-81280000D03*
X111125000Y-81280000D03*
X108585000Y-81280000D03*
X106045000Y-81280000D03*
X103505000Y-81280000D03*
X100965000Y-81280000D03*
X98425000Y-81280000D03*
X95885000Y-81280000D03*
X93345000Y-81280000D03*
X90805000Y-81280000D03*
X88265000Y-81280000D03*
X85725000Y-81280000D03*
X83185000Y-81280000D03*
X80645000Y-81280000D03*
X80645000Y-119380000D03*
X83185000Y-119380000D03*
X85725000Y-119380000D03*
X88265000Y-119380000D03*
X90805000Y-119380000D03*
X93345000Y-119380000D03*
X95885000Y-119380000D03*
X98425000Y-119380000D03*
X100965000Y-119380000D03*
X103505000Y-119380000D03*
X106045000Y-119380000D03*
X108585000Y-119380000D03*
X111125000Y-119380000D03*
X113665000Y-119380000D03*
X116205000Y-119380000D03*
D10*
X118745000Y-119380000D03*
D12*
X112500000Y-108000000D03*
X114000000Y-116000000D03*
X118505100Y-97451500D03*
X117244600Y-98734900D03*
X115717200Y-102287500D03*
X116033000Y-105143300D03*
X114857900Y-106508200D03*
X128000900Y-110350200D03*
X115045200Y-89840700D03*
D13*
X126929001Y-113124999D02*
X116875001Y-113124999D01*
X123825000Y-119380000D02*
X125189999Y-118015001D01*
X127762000Y-113957998D02*
X126929001Y-113124999D01*
X127762000Y-117221000D02*
X127762000Y-113957998D01*
X126967999Y-118015001D02*
X127762000Y-117221000D01*
X125189999Y-118015001D02*
X126967999Y-118015001D01*
X116875001Y-113124999D02*
X114000000Y-116000000D01*
X112500000Y-108000000D02*
X102539998Y-108000000D01*
X102539998Y-108000000D02*
X76929999Y-82390001D01*
X76929999Y-82390001D02*
X76929999Y-79915001D01*
X77255001Y-79589999D02*
X78105000Y-78740000D01*
X76929999Y-79915001D02*
X77255001Y-79589999D01*
X94709700Y-119012600D02*
X94709700Y-119380000D01*
X93901800Y-118204700D02*
X94709700Y-119012600D01*
X85168300Y-118204700D02*
X93901800Y-118204700D01*
X84360300Y-119012700D02*
X85168300Y-118204700D01*
X84360300Y-119380000D02*
X84360300Y-119012700D01*
X83185000Y-119380000D02*
X84360300Y-119380000D01*
X95885000Y-119380000D02*
X94709700Y-119380000D01*
X125997600Y-82455300D02*
X126365000Y-82455300D01*
X125189700Y-83263200D02*
X125997600Y-82455300D01*
X125189700Y-84187400D02*
X125189700Y-83263200D01*
X124192400Y-85184700D02*
X125189700Y-84187400D01*
X123825000Y-85184700D02*
X124192400Y-85184700D01*
X123825000Y-86360000D02*
X123825000Y-85184700D01*
X126365000Y-81280000D02*
X126365000Y-82455300D01*
X113297700Y-85184700D02*
X123825000Y-85184700D01*
X109760300Y-81647300D02*
X113297700Y-85184700D01*
X109760300Y-81280000D02*
X109760300Y-81647300D01*
X108585000Y-81280000D02*
X109760300Y-81280000D01*
X125000300Y-107047400D02*
X125000300Y-106680000D01*
X125808200Y-107855300D02*
X125000300Y-107047400D01*
X126728000Y-107855300D02*
X125808200Y-107855300D01*
X127540300Y-108667600D02*
X126728000Y-107855300D01*
X127540300Y-109776800D02*
X127540300Y-108667600D01*
X126732400Y-110584700D02*
X127540300Y-109776800D01*
X126365000Y-110584700D02*
X126732400Y-110584700D01*
X126365000Y-111760000D02*
X126365000Y-110584700D01*
X123825000Y-106680000D02*
X125000300Y-106680000D01*
X125189700Y-117153500D02*
X125189700Y-116840000D01*
X124138500Y-118204700D02*
X125189700Y-117153500D01*
X115648200Y-118204700D02*
X124138500Y-118204700D01*
X114840300Y-119012600D02*
X115648200Y-118204700D01*
X114840300Y-119380000D02*
X114840300Y-119012600D01*
X113665000Y-119380000D02*
X114840300Y-119380000D01*
X126365000Y-116840000D02*
X125189700Y-116840000D01*
X97060300Y-119747400D02*
X97060300Y-119380000D01*
X97868200Y-120555300D02*
X97060300Y-119747400D01*
X101521700Y-120555300D02*
X97868200Y-120555300D01*
X102329700Y-119747300D02*
X101521700Y-120555300D01*
X102329700Y-119380000D02*
X102329700Y-119747300D01*
X103505000Y-119380000D02*
X102329700Y-119380000D01*
X95885000Y-119380000D02*
X97060300Y-119380000D01*
X118745000Y-81280000D02*
X119920300Y-81280000D01*
X123825000Y-76200000D02*
X123825000Y-77375300D01*
X124192300Y-77375300D02*
X123825000Y-77375300D01*
X125038600Y-78221600D02*
X124192300Y-77375300D01*
X125038600Y-80098200D02*
X125038600Y-78221600D01*
X121102100Y-80098200D02*
X125038600Y-80098200D01*
X119920300Y-81280000D02*
X121102100Y-80098200D01*
X125000300Y-96152600D02*
X125000300Y-96520000D01*
X125808200Y-95344700D02*
X125000300Y-96152600D01*
X126680400Y-95344700D02*
X125808200Y-95344700D01*
X127592600Y-94432500D02*
X126680400Y-95344700D01*
X127592600Y-80767700D02*
X127592600Y-94432500D01*
X126923100Y-80098200D02*
X127592600Y-80767700D01*
X125038600Y-80098200D02*
X126923100Y-80098200D01*
X123825000Y-96520000D02*
X125000300Y-96520000D01*
X119112300Y-78740000D02*
X123825000Y-78740000D01*
X117380300Y-80472000D02*
X119112300Y-78740000D01*
X117380300Y-81280000D02*
X117380300Y-80472000D01*
X116205000Y-81280000D02*
X117380300Y-81280000D01*
X121474400Y-82455300D02*
X122649700Y-81280000D01*
X115648300Y-82455300D02*
X121474400Y-82455300D01*
X114840300Y-81647300D02*
X115648300Y-82455300D01*
X114840300Y-81280000D02*
X114840300Y-81647300D01*
X113665000Y-81280000D02*
X114840300Y-81280000D01*
X123825000Y-81280000D02*
X122649700Y-81280000D01*
X111125000Y-81280000D02*
X112300300Y-81280000D01*
X112300300Y-81647300D02*
X112300300Y-81280000D01*
X114473000Y-83820000D02*
X112300300Y-81647300D01*
X123825000Y-83820000D02*
X114473000Y-83820000D01*
X114473000Y-88900000D02*
X123825000Y-88900000D01*
X107220300Y-81647300D02*
X114473000Y-88900000D01*
X107220300Y-81280000D02*
X107220300Y-81647300D01*
X106045000Y-81280000D02*
X107220300Y-81280000D01*
X114473000Y-91440000D02*
X123825000Y-91440000D01*
X104680300Y-81647300D02*
X114473000Y-91440000D01*
X104680300Y-81280000D02*
X104680300Y-81647300D01*
X103505000Y-81280000D02*
X104680300Y-81280000D01*
X114473000Y-93980000D02*
X123825000Y-93980000D01*
X102140300Y-81647300D02*
X114473000Y-93980000D01*
X102140300Y-81280000D02*
X102140300Y-81647300D01*
X100965000Y-81280000D02*
X102140300Y-81280000D01*
X120027400Y-96437700D02*
X122649700Y-99060000D01*
X111850700Y-96437700D02*
X120027400Y-96437700D01*
X97060300Y-81647300D02*
X111850700Y-96437700D01*
X97060300Y-81280000D02*
X97060300Y-81647300D01*
X95885000Y-81280000D02*
X97060300Y-81280000D01*
X123825000Y-99060000D02*
X122649700Y-99060000D01*
X110324500Y-97451500D02*
X118505100Y-97451500D01*
X94520300Y-81647300D02*
X110324500Y-97451500D01*
X94520300Y-81280000D02*
X94520300Y-81647300D01*
X93345000Y-81280000D02*
X94520300Y-81280000D01*
X90805000Y-81280000D02*
X91980300Y-81280000D01*
X109067900Y-98734900D02*
X117244600Y-98734900D01*
X91980300Y-81647300D02*
X109067900Y-98734900D01*
X91980300Y-81280000D02*
X91980300Y-81647300D01*
X85725000Y-81280000D02*
X86900300Y-81280000D01*
X107540500Y-102287500D02*
X115717200Y-102287500D01*
X86900300Y-81647300D02*
X107540500Y-102287500D01*
X86900300Y-81280000D02*
X86900300Y-81647300D01*
X83185000Y-81280000D02*
X84360300Y-81280000D01*
X107856300Y-105143300D02*
X116033000Y-105143300D01*
X84360300Y-81647300D02*
X107856300Y-105143300D01*
X84360300Y-81280000D02*
X84360300Y-81647300D01*
X80645000Y-81280000D02*
X81820300Y-81280000D01*
X81820300Y-81647300D02*
X81820300Y-81280000D01*
X106681200Y-106508200D02*
X81820300Y-81647300D01*
X114857900Y-106508200D02*
X106681200Y-106508200D01*
X80455600Y-125635300D02*
X79280300Y-124460000D01*
X124381700Y-125635300D02*
X80455600Y-125635300D01*
X125189700Y-124827300D02*
X124381700Y-125635300D01*
X125189700Y-124460000D02*
X125189700Y-124827300D01*
X126365000Y-124460000D02*
X125189700Y-124460000D01*
X78105000Y-124460000D02*
X79280300Y-124460000D01*
X126365000Y-121920000D02*
X125189700Y-121920000D01*
X78105000Y-121920000D02*
X79280300Y-121920000D01*
X125189700Y-122287300D02*
X125189700Y-121920000D01*
X124335000Y-123142000D02*
X125189700Y-122287300D01*
X110309300Y-123142000D02*
X124335000Y-123142000D01*
X110135900Y-123315400D02*
X110309300Y-123142000D01*
X80675700Y-123315400D02*
X110135900Y-123315400D01*
X79280300Y-121920000D02*
X80675700Y-123315400D01*
X126365000Y-119380000D02*
X125189700Y-119380000D01*
X78105000Y-119380000D02*
X79280300Y-119380000D01*
X125189700Y-119747400D02*
X125189700Y-119380000D01*
X124381800Y-120555300D02*
X125189700Y-119747400D01*
X112259100Y-120555300D02*
X124381800Y-120555300D01*
X109956500Y-122857900D02*
X112259100Y-120555300D01*
X82390900Y-122857900D02*
X109956500Y-122857900D01*
X79280300Y-119747300D02*
X82390900Y-122857900D01*
X79280300Y-119380000D02*
X79280300Y-119747300D01*
X80645000Y-119380000D02*
X81820300Y-119380000D01*
X126365000Y-114300000D02*
X125189700Y-114300000D01*
X125189700Y-114667400D02*
X125189700Y-114300000D01*
X124381800Y-115475300D02*
X125189700Y-114667400D01*
X115885100Y-115475300D02*
X124381800Y-115475300D01*
X112395000Y-118965400D02*
X115885100Y-115475300D01*
X112395000Y-119781500D02*
X112395000Y-118965400D01*
X109768900Y-122407600D02*
X112395000Y-119781500D01*
X84480600Y-122407600D02*
X109768900Y-122407600D01*
X81820300Y-119747300D02*
X84480600Y-122407600D01*
X81820300Y-119380000D02*
X81820300Y-119747300D01*
X125189700Y-109587400D02*
X125189700Y-109220000D01*
X124381800Y-110395300D02*
X125189700Y-109587400D01*
X118436100Y-110395300D02*
X124381800Y-110395300D01*
X109855000Y-118976400D02*
X118436100Y-110395300D01*
X109855000Y-119775800D02*
X109855000Y-118976400D01*
X107673500Y-121957300D02*
X109855000Y-119775800D01*
X89110300Y-121957300D02*
X107673500Y-121957300D01*
X86900300Y-119747300D02*
X89110300Y-121957300D01*
X86900300Y-119380000D02*
X86900300Y-119747300D01*
X85725000Y-119380000D02*
X86900300Y-119380000D01*
X126365000Y-109220000D02*
X125189700Y-109220000D01*
X128000900Y-110350200D02*
X128000900Y-108315900D01*
X128000900Y-108315900D02*
X126365000Y-106680000D01*
X125189700Y-104507400D02*
X125189700Y-104140000D01*
X124381800Y-105315300D02*
X125189700Y-104507400D01*
X120986700Y-105315300D02*
X124381800Y-105315300D01*
X107220400Y-119081600D02*
X120986700Y-105315300D01*
X107220400Y-119887200D02*
X107220400Y-119081600D01*
X105617700Y-121489900D02*
X107220400Y-119887200D01*
X93790600Y-121489900D02*
X105617700Y-121489900D01*
X91980300Y-119679600D02*
X93790600Y-121489900D01*
X91980300Y-119380000D02*
X91980300Y-119679600D01*
X90805000Y-119380000D02*
X91980300Y-119380000D01*
X126365000Y-104140000D02*
X125189700Y-104140000D01*
X126365000Y-101600000D02*
X125189700Y-101600000D01*
X125189700Y-101967400D02*
X125189700Y-101600000D01*
X124381800Y-102775300D02*
X125189700Y-101967400D01*
X120986100Y-102775300D02*
X124381800Y-102775300D01*
X104775000Y-118986400D02*
X120986100Y-102775300D01*
X104775000Y-119780200D02*
X104775000Y-118986400D01*
X103515700Y-121039500D02*
X104775000Y-119780200D01*
X95004500Y-121039500D02*
X103515700Y-121039500D01*
X93345000Y-119380000D02*
X95004500Y-121039500D01*
X125997600Y-97695300D02*
X126365000Y-97695300D01*
X125189700Y-98503200D02*
X125997600Y-97695300D01*
X125189700Y-99360100D02*
X125189700Y-98503200D01*
X124314400Y-100235400D02*
X125189700Y-99360100D01*
X122585300Y-100235400D02*
X124314400Y-100235400D01*
X104616000Y-118204700D02*
X122585300Y-100235400D01*
X100408200Y-118204700D02*
X104616000Y-118204700D01*
X99600300Y-119012600D02*
X100408200Y-118204700D01*
X99600300Y-119380000D02*
X99600300Y-119012600D01*
X98425000Y-119380000D02*
X99600300Y-119380000D01*
X126365000Y-96520000D02*
X126365000Y-97695300D01*
X126365000Y-88900000D02*
X125189700Y-88900000D01*
X125189700Y-89267400D02*
X125189700Y-88900000D01*
X124381800Y-90075300D02*
X125189700Y-89267400D01*
X115279800Y-90075300D02*
X124381800Y-90075300D01*
X115045200Y-89840700D02*
X115279800Y-90075300D01*
X118745000Y-119380000D02*
X116205000Y-119380000D01*
D14*
G36*
X124980020Y-68035951D02*
X125056532Y-68043993D01*
X125416322Y-68062849D01*
X125734123Y-68113184D01*
X126044918Y-68196462D01*
X126345306Y-68311770D01*
X126631999Y-68457847D01*
X126901853Y-68633093D01*
X127151903Y-68835579D01*
X127379424Y-69063101D01*
X127581910Y-69313151D01*
X127757153Y-69583001D01*
X127903229Y-69869691D01*
X128018541Y-70170090D01*
X128101816Y-70480876D01*
X128152151Y-70798678D01*
X128170000Y-71139254D01*
X128170000Y-80263878D01*
X128140529Y-80219771D01*
X128077073Y-80177371D01*
X127545655Y-79645954D01*
X127763839Y-79319418D01*
X127879092Y-78740000D01*
X127763839Y-78160582D01*
X127435625Y-77669375D01*
X127137239Y-77470000D01*
X127435625Y-77270625D01*
X127763839Y-76779418D01*
X127879092Y-76200000D01*
X127763839Y-75620582D01*
X127435625Y-75129375D01*
X126944418Y-74801161D01*
X126511256Y-74715000D01*
X126218744Y-74715000D01*
X125785582Y-74801161D01*
X125294375Y-75129375D01*
X125282184Y-75147619D01*
X125273157Y-75102235D01*
X125132809Y-74892191D01*
X124922765Y-74751843D01*
X124675000Y-74702560D01*
X122975000Y-74702560D01*
X122727235Y-74751843D01*
X122517191Y-74892191D01*
X122376843Y-75102235D01*
X122327560Y-75350000D01*
X122327560Y-77050000D01*
X122376843Y-77297765D01*
X122517191Y-77507809D01*
X122727235Y-77648157D01*
X122772619Y-77657184D01*
X122754375Y-77669375D01*
X122546822Y-77980000D01*
X119187147Y-77980000D01*
X119112300Y-77965112D01*
X119037453Y-77980000D01*
X119037448Y-77980000D01*
X118815763Y-78024096D01*
X118564371Y-78192071D01*
X118521971Y-78255527D01*
X116895828Y-79881671D01*
X116840505Y-79918637D01*
X116784418Y-79881161D01*
X116351256Y-79795000D01*
X116058744Y-79795000D01*
X115625582Y-79881161D01*
X115134375Y-80209375D01*
X114935000Y-80507761D01*
X114735625Y-80209375D01*
X114244418Y-79881161D01*
X113811256Y-79795000D01*
X113518744Y-79795000D01*
X113085582Y-79881161D01*
X112594375Y-80209375D01*
X112395000Y-80507761D01*
X112195625Y-80209375D01*
X111704418Y-79881161D01*
X111271256Y-79795000D01*
X110978744Y-79795000D01*
X110545582Y-79881161D01*
X110054375Y-80209375D01*
X109841157Y-80528478D01*
X109780183Y-80398642D01*
X109351924Y-80008355D01*
X108941890Y-79838524D01*
X108712000Y-79959845D01*
X108712000Y-81153000D01*
X108732000Y-81153000D01*
X108732000Y-81407000D01*
X108712000Y-81407000D01*
X108712000Y-81427000D01*
X108458000Y-81427000D01*
X108458000Y-81407000D01*
X108438000Y-81407000D01*
X108438000Y-81153000D01*
X108458000Y-81153000D01*
X108458000Y-79959845D01*
X108228110Y-79838524D01*
X107818076Y-80008355D01*
X107389817Y-80398642D01*
X107329606Y-80526853D01*
X107327474Y-80526429D01*
X107115625Y-80209375D01*
X106624418Y-79881161D01*
X106191256Y-79795000D01*
X105898744Y-79795000D01*
X105465582Y-79881161D01*
X104974375Y-80209375D01*
X104775000Y-80507761D01*
X104575625Y-80209375D01*
X104084418Y-79881161D01*
X103651256Y-79795000D01*
X103358744Y-79795000D01*
X102925582Y-79881161D01*
X102434375Y-80209375D01*
X102235000Y-80507761D01*
X102035625Y-80209375D01*
X101544418Y-79881161D01*
X101111256Y-79795000D01*
X100818744Y-79795000D01*
X100385582Y-79881161D01*
X99894375Y-80209375D01*
X99695000Y-80507761D01*
X99495625Y-80209375D01*
X99004418Y-79881161D01*
X98571256Y-79795000D01*
X98278744Y-79795000D01*
X97845582Y-79881161D01*
X97354375Y-80209375D01*
X97155000Y-80507761D01*
X96955625Y-80209375D01*
X96464418Y-79881161D01*
X96031256Y-79795000D01*
X95738744Y-79795000D01*
X95305582Y-79881161D01*
X94814375Y-80209375D01*
X94615000Y-80507761D01*
X94415625Y-80209375D01*
X93924418Y-79881161D01*
X93491256Y-79795000D01*
X93198744Y-79795000D01*
X92765582Y-79881161D01*
X92274375Y-80209375D01*
X92075000Y-80507761D01*
X91875625Y-80209375D01*
X91384418Y-79881161D01*
X90951256Y-79795000D01*
X90658744Y-79795000D01*
X90225582Y-79881161D01*
X89734375Y-80209375D01*
X89521157Y-80528478D01*
X89460183Y-80398642D01*
X89031924Y-80008355D01*
X88621890Y-79838524D01*
X88392000Y-79959845D01*
X88392000Y-81153000D01*
X88412000Y-81153000D01*
X88412000Y-81407000D01*
X88392000Y-81407000D01*
X88392000Y-81427000D01*
X88138000Y-81427000D01*
X88138000Y-81407000D01*
X88118000Y-81407000D01*
X88118000Y-81153000D01*
X88138000Y-81153000D01*
X88138000Y-79959845D01*
X87908110Y-79838524D01*
X87498076Y-80008355D01*
X87069817Y-80398642D01*
X87009606Y-80526853D01*
X87007474Y-80526429D01*
X86795625Y-80209375D01*
X86304418Y-79881161D01*
X85871256Y-79795000D01*
X85578744Y-79795000D01*
X85145582Y-79881161D01*
X84654375Y-80209375D01*
X84455000Y-80507761D01*
X84255625Y-80209375D01*
X83764418Y-79881161D01*
X83331256Y-79795000D01*
X83038744Y-79795000D01*
X82605582Y-79881161D01*
X82114375Y-80209375D01*
X81915000Y-80507761D01*
X81715625Y-80209375D01*
X81224418Y-79881161D01*
X80791256Y-79795000D01*
X80498744Y-79795000D01*
X80065582Y-79881161D01*
X79574375Y-80209375D01*
X79562184Y-80227619D01*
X79553157Y-80182235D01*
X79412809Y-79972191D01*
X79202765Y-79831843D01*
X79157381Y-79822816D01*
X79175625Y-79810625D01*
X79503839Y-79319418D01*
X79619092Y-78740000D01*
X79503839Y-78160582D01*
X79175625Y-77669375D01*
X78877239Y-77470000D01*
X79175625Y-77270625D01*
X79503839Y-76779418D01*
X79619092Y-76200000D01*
X79503839Y-75620582D01*
X79175625Y-75129375D01*
X78684418Y-74801161D01*
X78251256Y-74715000D01*
X77958744Y-74715000D01*
X77525582Y-74801161D01*
X77034375Y-75129375D01*
X76706161Y-75620582D01*
X76590908Y-76200000D01*
X76706161Y-76779418D01*
X77034375Y-77270625D01*
X77332761Y-77470000D01*
X77034375Y-77669375D01*
X76706161Y-78160582D01*
X76590908Y-78740000D01*
X76663791Y-79106408D01*
X76445527Y-79324672D01*
X76382071Y-79367072D01*
X76339671Y-79430528D01*
X76339670Y-79430529D01*
X76214096Y-79618464D01*
X76155111Y-79915001D01*
X76170000Y-79989853D01*
X76169999Y-82315154D01*
X76155111Y-82390001D01*
X76169999Y-82464848D01*
X76169999Y-82464852D01*
X76214095Y-82686537D01*
X76382070Y-82937930D01*
X76445529Y-82980332D01*
X101949669Y-108484473D01*
X101992069Y-108547929D01*
X102243461Y-108715904D01*
X102465146Y-108760000D01*
X102465151Y-108760000D01*
X102539998Y-108774888D01*
X102614845Y-108760000D01*
X111796289Y-108760000D01*
X111913720Y-108877431D01*
X112294126Y-109035000D01*
X112705874Y-109035000D01*
X112714451Y-109031447D01*
X104301199Y-117444700D01*
X100483046Y-117444700D01*
X100408199Y-117429812D01*
X100333352Y-117444700D01*
X100333348Y-117444700D01*
X100111663Y-117488796D01*
X99860271Y-117656771D01*
X99817871Y-117720227D01*
X99335629Y-118202469D01*
X99004418Y-117981161D01*
X98571256Y-117895000D01*
X98278744Y-117895000D01*
X97845582Y-117981161D01*
X97354375Y-118309375D01*
X97141157Y-118628478D01*
X97080183Y-118498642D01*
X96651924Y-118108355D01*
X96241890Y-117938524D01*
X96012000Y-118059845D01*
X96012000Y-119253000D01*
X96032000Y-119253000D01*
X96032000Y-119507000D01*
X96012000Y-119507000D01*
X96012000Y-119527000D01*
X95758000Y-119527000D01*
X95758000Y-119507000D01*
X95738000Y-119507000D01*
X95738000Y-119253000D01*
X95758000Y-119253000D01*
X95758000Y-118059845D01*
X95528110Y-117938524D01*
X95118076Y-118108355D01*
X94689817Y-118498642D01*
X94628843Y-118628478D01*
X94415625Y-118309375D01*
X93924418Y-117981161D01*
X93491256Y-117895000D01*
X93198744Y-117895000D01*
X92765582Y-117981161D01*
X92274375Y-118309375D01*
X92075000Y-118607761D01*
X91875625Y-118309375D01*
X91384418Y-117981161D01*
X90951256Y-117895000D01*
X90658744Y-117895000D01*
X90225582Y-117981161D01*
X89734375Y-118309375D01*
X89535000Y-118607761D01*
X89335625Y-118309375D01*
X88844418Y-117981161D01*
X88411256Y-117895000D01*
X88118744Y-117895000D01*
X87685582Y-117981161D01*
X87194375Y-118309375D01*
X86995000Y-118607761D01*
X86795625Y-118309375D01*
X86304418Y-117981161D01*
X85871256Y-117895000D01*
X85578744Y-117895000D01*
X85145582Y-117981161D01*
X84654375Y-118309375D01*
X84441157Y-118628478D01*
X84380183Y-118498642D01*
X83951924Y-118108355D01*
X83541890Y-117938524D01*
X83312000Y-118059845D01*
X83312000Y-119253000D01*
X83332000Y-119253000D01*
X83332000Y-119507000D01*
X83312000Y-119507000D01*
X83312000Y-119527000D01*
X83058000Y-119527000D01*
X83058000Y-119507000D01*
X83038000Y-119507000D01*
X83038000Y-119253000D01*
X83058000Y-119253000D01*
X83058000Y-118059845D01*
X82828110Y-117938524D01*
X82418076Y-118108355D01*
X81989817Y-118498642D01*
X81929606Y-118626853D01*
X81927474Y-118626429D01*
X81715625Y-118309375D01*
X81224418Y-117981161D01*
X80791256Y-117895000D01*
X80498744Y-117895000D01*
X80065582Y-117981161D01*
X79574375Y-118309375D01*
X79562184Y-118327619D01*
X79553157Y-118282235D01*
X79412809Y-118072191D01*
X79202765Y-117931843D01*
X78955000Y-117882560D01*
X77255000Y-117882560D01*
X77007235Y-117931843D01*
X76797191Y-118072191D01*
X76656843Y-118282235D01*
X76607560Y-118530000D01*
X76607560Y-120230000D01*
X76656843Y-120477765D01*
X76797191Y-120687809D01*
X77007235Y-120828157D01*
X77052619Y-120837184D01*
X77034375Y-120849375D01*
X76706161Y-121340582D01*
X76590908Y-121920000D01*
X76706161Y-122499418D01*
X77034375Y-122990625D01*
X77332761Y-123190000D01*
X77034375Y-123389375D01*
X76706161Y-123880582D01*
X76590908Y-124460000D01*
X76706161Y-125039418D01*
X77034375Y-125530625D01*
X77525582Y-125858839D01*
X77958744Y-125945000D01*
X78251256Y-125945000D01*
X78684418Y-125858839D01*
X79175625Y-125530625D01*
X79215879Y-125470380D01*
X79865271Y-126119773D01*
X79907671Y-126183229D01*
X80159063Y-126351204D01*
X80380748Y-126395300D01*
X80380752Y-126395300D01*
X80455599Y-126410188D01*
X80530446Y-126395300D01*
X124306853Y-126395300D01*
X124381700Y-126410188D01*
X124456547Y-126395300D01*
X124456552Y-126395300D01*
X124678237Y-126351204D01*
X124929629Y-126183229D01*
X124972031Y-126119770D01*
X125454311Y-125637491D01*
X125785582Y-125858839D01*
X126218744Y-125945000D01*
X126511256Y-125945000D01*
X126944418Y-125858839D01*
X127435625Y-125530625D01*
X127763839Y-125039418D01*
X127879092Y-124460000D01*
X127763839Y-123880582D01*
X127435625Y-123389375D01*
X127137239Y-123190000D01*
X127435625Y-122990625D01*
X127763839Y-122499418D01*
X127879092Y-121920000D01*
X127763839Y-121340582D01*
X127435625Y-120849375D01*
X127137239Y-120650000D01*
X127435625Y-120450625D01*
X127763839Y-119959418D01*
X127879092Y-119380000D01*
X127763839Y-118800582D01*
X127560916Y-118496886D01*
X128170001Y-117887801D01*
X128170001Y-129520727D01*
X128152151Y-129861322D01*
X128101816Y-130179124D01*
X128018541Y-130489910D01*
X127903229Y-130790309D01*
X127757153Y-131076999D01*
X127581910Y-131346849D01*
X127379424Y-131596899D01*
X127151903Y-131824421D01*
X126901853Y-132026907D01*
X126631999Y-132202153D01*
X126345306Y-132348230D01*
X126044918Y-132463538D01*
X125734123Y-132546816D01*
X125416322Y-132597151D01*
X125056532Y-132616007D01*
X124980020Y-132624049D01*
X124904979Y-132640000D01*
X74485021Y-132640000D01*
X74409980Y-132624049D01*
X74333468Y-132616007D01*
X73973678Y-132597151D01*
X73655876Y-132546816D01*
X73345090Y-132463541D01*
X73044691Y-132348229D01*
X72758001Y-132202153D01*
X72488151Y-132026910D01*
X72238101Y-131824424D01*
X72010579Y-131596903D01*
X71808093Y-131346853D01*
X71632847Y-131076999D01*
X71486770Y-130790306D01*
X71371462Y-130489918D01*
X71288184Y-130179123D01*
X71237849Y-129861322D01*
X71218993Y-129501532D01*
X71210951Y-129425020D01*
X71195000Y-129349979D01*
X71195000Y-129145159D01*
X72310000Y-129145159D01*
X72310000Y-129934841D01*
X72612199Y-130664412D01*
X73170588Y-131222801D01*
X73900159Y-131525000D01*
X74689841Y-131525000D01*
X75419412Y-131222801D01*
X75977801Y-130664412D01*
X76280000Y-129934841D01*
X76280000Y-129145159D01*
X123110000Y-129145159D01*
X123110000Y-129934841D01*
X123412199Y-130664412D01*
X123970588Y-131222801D01*
X124700159Y-131525000D01*
X125489841Y-131525000D01*
X126219412Y-131222801D01*
X126777801Y-130664412D01*
X127080000Y-129934841D01*
X127080000Y-129145159D01*
X126777801Y-128415588D01*
X126219412Y-127857199D01*
X125489841Y-127555000D01*
X124700159Y-127555000D01*
X123970588Y-127857199D01*
X123412199Y-128415588D01*
X123110000Y-129145159D01*
X76280000Y-129145159D01*
X75977801Y-128415588D01*
X75419412Y-127857199D01*
X74689841Y-127555000D01*
X73900159Y-127555000D01*
X73170588Y-127857199D01*
X72612199Y-128415588D01*
X72310000Y-129145159D01*
X71195000Y-129145159D01*
X71195000Y-71310021D01*
X71210951Y-71234980D01*
X71218993Y-71158468D01*
X71237849Y-70798678D01*
X71249493Y-70725159D01*
X72310000Y-70725159D01*
X72310000Y-71514841D01*
X72612199Y-72244412D01*
X73170588Y-72802801D01*
X73900159Y-73105000D01*
X74689841Y-73105000D01*
X75419412Y-72802801D01*
X75977801Y-72244412D01*
X76280000Y-71514841D01*
X76280000Y-70725159D01*
X123110000Y-70725159D01*
X123110000Y-71514841D01*
X123412199Y-72244412D01*
X123970588Y-72802801D01*
X124700159Y-73105000D01*
X125489841Y-73105000D01*
X126219412Y-72802801D01*
X126777801Y-72244412D01*
X127080000Y-71514841D01*
X127080000Y-70725159D01*
X126777801Y-69995588D01*
X126219412Y-69437199D01*
X125489841Y-69135000D01*
X124700159Y-69135000D01*
X123970588Y-69437199D01*
X123412199Y-69995588D01*
X123110000Y-70725159D01*
X76280000Y-70725159D01*
X75977801Y-69995588D01*
X75419412Y-69437199D01*
X74689841Y-69135000D01*
X73900159Y-69135000D01*
X73170588Y-69437199D01*
X72612199Y-69995588D01*
X72310000Y-70725159D01*
X71249493Y-70725159D01*
X71288184Y-70480877D01*
X71371462Y-70170082D01*
X71486770Y-69869694D01*
X71632847Y-69583001D01*
X71808093Y-69313147D01*
X72010579Y-69063097D01*
X72238101Y-68835576D01*
X72488151Y-68633090D01*
X72758001Y-68457847D01*
X73044691Y-68311771D01*
X73345090Y-68196459D01*
X73655876Y-68113184D01*
X73973678Y-68062849D01*
X74333468Y-68043993D01*
X74409980Y-68035951D01*
X74485021Y-68020000D01*
X124904979Y-68020000D01*
X124980020Y-68035951D01*
X124980020Y-68035951D01*
G37*
X124980020Y-68035951D02*
X125056532Y-68043993D01*
X125416322Y-68062849D01*
X125734123Y-68113184D01*
X126044918Y-68196462D01*
X126345306Y-68311770D01*
X126631999Y-68457847D01*
X126901853Y-68633093D01*
X127151903Y-68835579D01*
X127379424Y-69063101D01*
X127581910Y-69313151D01*
X127757153Y-69583001D01*
X127903229Y-69869691D01*
X128018541Y-70170090D01*
X128101816Y-70480876D01*
X128152151Y-70798678D01*
X128170000Y-71139254D01*
X128170000Y-80263878D01*
X128140529Y-80219771D01*
X128077073Y-80177371D01*
X127545655Y-79645954D01*
X127763839Y-79319418D01*
X127879092Y-78740000D01*
X127763839Y-78160582D01*
X127435625Y-77669375D01*
X127137239Y-77470000D01*
X127435625Y-77270625D01*
X127763839Y-76779418D01*
X127879092Y-76200000D01*
X127763839Y-75620582D01*
X127435625Y-75129375D01*
X126944418Y-74801161D01*
X126511256Y-74715000D01*
X126218744Y-74715000D01*
X125785582Y-74801161D01*
X125294375Y-75129375D01*
X125282184Y-75147619D01*
X125273157Y-75102235D01*
X125132809Y-74892191D01*
X124922765Y-74751843D01*
X124675000Y-74702560D01*
X122975000Y-74702560D01*
X122727235Y-74751843D01*
X122517191Y-74892191D01*
X122376843Y-75102235D01*
X122327560Y-75350000D01*
X122327560Y-77050000D01*
X122376843Y-77297765D01*
X122517191Y-77507809D01*
X122727235Y-77648157D01*
X122772619Y-77657184D01*
X122754375Y-77669375D01*
X122546822Y-77980000D01*
X119187147Y-77980000D01*
X119112300Y-77965112D01*
X119037453Y-77980000D01*
X119037448Y-77980000D01*
X118815763Y-78024096D01*
X118564371Y-78192071D01*
X118521971Y-78255527D01*
X116895828Y-79881671D01*
X116840505Y-79918637D01*
X116784418Y-79881161D01*
X116351256Y-79795000D01*
X116058744Y-79795000D01*
X115625582Y-79881161D01*
X115134375Y-80209375D01*
X114935000Y-80507761D01*
X114735625Y-80209375D01*
X114244418Y-79881161D01*
X113811256Y-79795000D01*
X113518744Y-79795000D01*
X113085582Y-79881161D01*
X112594375Y-80209375D01*
X112395000Y-80507761D01*
X112195625Y-80209375D01*
X111704418Y-79881161D01*
X111271256Y-79795000D01*
X110978744Y-79795000D01*
X110545582Y-79881161D01*
X110054375Y-80209375D01*
X109841157Y-80528478D01*
X109780183Y-80398642D01*
X109351924Y-80008355D01*
X108941890Y-79838524D01*
X108712000Y-79959845D01*
X108712000Y-81153000D01*
X108732000Y-81153000D01*
X108732000Y-81407000D01*
X108712000Y-81407000D01*
X108712000Y-81427000D01*
X108458000Y-81427000D01*
X108458000Y-81407000D01*
X108438000Y-81407000D01*
X108438000Y-81153000D01*
X108458000Y-81153000D01*
X108458000Y-79959845D01*
X108228110Y-79838524D01*
X107818076Y-80008355D01*
X107389817Y-80398642D01*
X107329606Y-80526853D01*
X107327474Y-80526429D01*
X107115625Y-80209375D01*
X106624418Y-79881161D01*
X106191256Y-79795000D01*
X105898744Y-79795000D01*
X105465582Y-79881161D01*
X104974375Y-80209375D01*
X104775000Y-80507761D01*
X104575625Y-80209375D01*
X104084418Y-79881161D01*
X103651256Y-79795000D01*
X103358744Y-79795000D01*
X102925582Y-79881161D01*
X102434375Y-80209375D01*
X102235000Y-80507761D01*
X102035625Y-80209375D01*
X101544418Y-79881161D01*
X101111256Y-79795000D01*
X100818744Y-79795000D01*
X100385582Y-79881161D01*
X99894375Y-80209375D01*
X99695000Y-80507761D01*
X99495625Y-80209375D01*
X99004418Y-79881161D01*
X98571256Y-79795000D01*
X98278744Y-79795000D01*
X97845582Y-79881161D01*
X97354375Y-80209375D01*
X97155000Y-80507761D01*
X96955625Y-80209375D01*
X96464418Y-79881161D01*
X96031256Y-79795000D01*
X95738744Y-79795000D01*
X95305582Y-79881161D01*
X94814375Y-80209375D01*
X94615000Y-80507761D01*
X94415625Y-80209375D01*
X93924418Y-79881161D01*
X93491256Y-79795000D01*
X93198744Y-79795000D01*
X92765582Y-79881161D01*
X92274375Y-80209375D01*
X92075000Y-80507761D01*
X91875625Y-80209375D01*
X91384418Y-79881161D01*
X90951256Y-79795000D01*
X90658744Y-79795000D01*
X90225582Y-79881161D01*
X89734375Y-80209375D01*
X89521157Y-80528478D01*
X89460183Y-80398642D01*
X89031924Y-80008355D01*
X88621890Y-79838524D01*
X88392000Y-79959845D01*
X88392000Y-81153000D01*
X88412000Y-81153000D01*
X88412000Y-81407000D01*
X88392000Y-81407000D01*
X88392000Y-81427000D01*
X88138000Y-81427000D01*
X88138000Y-81407000D01*
X88118000Y-81407000D01*
X88118000Y-81153000D01*
X88138000Y-81153000D01*
X88138000Y-79959845D01*
X87908110Y-79838524D01*
X87498076Y-80008355D01*
X87069817Y-80398642D01*
X87009606Y-80526853D01*
X87007474Y-80526429D01*
X86795625Y-80209375D01*
X86304418Y-79881161D01*
X85871256Y-79795000D01*
X85578744Y-79795000D01*
X85145582Y-79881161D01*
X84654375Y-80209375D01*
X84455000Y-80507761D01*
X84255625Y-80209375D01*
X83764418Y-79881161D01*
X83331256Y-79795000D01*
X83038744Y-79795000D01*
X82605582Y-79881161D01*
X82114375Y-80209375D01*
X81915000Y-80507761D01*
X81715625Y-80209375D01*
X81224418Y-79881161D01*
X80791256Y-79795000D01*
X80498744Y-79795000D01*
X80065582Y-79881161D01*
X79574375Y-80209375D01*
X79562184Y-80227619D01*
X79553157Y-80182235D01*
X79412809Y-79972191D01*
X79202765Y-79831843D01*
X79157381Y-79822816D01*
X79175625Y-79810625D01*
X79503839Y-79319418D01*
X79619092Y-78740000D01*
X79503839Y-78160582D01*
X79175625Y-77669375D01*
X78877239Y-77470000D01*
X79175625Y-77270625D01*
X79503839Y-76779418D01*
X79619092Y-76200000D01*
X79503839Y-75620582D01*
X79175625Y-75129375D01*
X78684418Y-74801161D01*
X78251256Y-74715000D01*
X77958744Y-74715000D01*
X77525582Y-74801161D01*
X77034375Y-75129375D01*
X76706161Y-75620582D01*
X76590908Y-76200000D01*
X76706161Y-76779418D01*
X77034375Y-77270625D01*
X77332761Y-77470000D01*
X77034375Y-77669375D01*
X76706161Y-78160582D01*
X76590908Y-78740000D01*
X76663791Y-79106408D01*
X76445527Y-79324672D01*
X76382071Y-79367072D01*
X76339671Y-79430528D01*
X76339670Y-79430529D01*
X76214096Y-79618464D01*
X76155111Y-79915001D01*
X76170000Y-79989853D01*
X76169999Y-82315154D01*
X76155111Y-82390001D01*
X76169999Y-82464848D01*
X76169999Y-82464852D01*
X76214095Y-82686537D01*
X76382070Y-82937930D01*
X76445529Y-82980332D01*
X101949669Y-108484473D01*
X101992069Y-108547929D01*
X102243461Y-108715904D01*
X102465146Y-108760000D01*
X102465151Y-108760000D01*
X102539998Y-108774888D01*
X102614845Y-108760000D01*
X111796289Y-108760000D01*
X111913720Y-108877431D01*
X112294126Y-109035000D01*
X112705874Y-109035000D01*
X112714451Y-109031447D01*
X104301199Y-117444700D01*
X100483046Y-117444700D01*
X100408199Y-117429812D01*
X100333352Y-117444700D01*
X100333348Y-117444700D01*
X100111663Y-117488796D01*
X99860271Y-117656771D01*
X99817871Y-117720227D01*
X99335629Y-118202469D01*
X99004418Y-117981161D01*
X98571256Y-117895000D01*
X98278744Y-117895000D01*
X97845582Y-117981161D01*
X97354375Y-118309375D01*
X97141157Y-118628478D01*
X97080183Y-118498642D01*
X96651924Y-118108355D01*
X96241890Y-117938524D01*
X96012000Y-118059845D01*
X96012000Y-119253000D01*
X96032000Y-119253000D01*
X96032000Y-119507000D01*
X96012000Y-119507000D01*
X96012000Y-119527000D01*
X95758000Y-119527000D01*
X95758000Y-119507000D01*
X95738000Y-119507000D01*
X95738000Y-119253000D01*
X95758000Y-119253000D01*
X95758000Y-118059845D01*
X95528110Y-117938524D01*
X95118076Y-118108355D01*
X94689817Y-118498642D01*
X94628843Y-118628478D01*
X94415625Y-118309375D01*
X93924418Y-117981161D01*
X93491256Y-117895000D01*
X93198744Y-117895000D01*
X92765582Y-117981161D01*
X92274375Y-118309375D01*
X92075000Y-118607761D01*
X91875625Y-118309375D01*
X91384418Y-117981161D01*
X90951256Y-117895000D01*
X90658744Y-117895000D01*
X90225582Y-117981161D01*
X89734375Y-118309375D01*
X89535000Y-118607761D01*
X89335625Y-118309375D01*
X88844418Y-117981161D01*
X88411256Y-117895000D01*
X88118744Y-117895000D01*
X87685582Y-117981161D01*
X87194375Y-118309375D01*
X86995000Y-118607761D01*
X86795625Y-118309375D01*
X86304418Y-117981161D01*
X85871256Y-117895000D01*
X85578744Y-117895000D01*
X85145582Y-117981161D01*
X84654375Y-118309375D01*
X84441157Y-118628478D01*
X84380183Y-118498642D01*
X83951924Y-118108355D01*
X83541890Y-117938524D01*
X83312000Y-118059845D01*
X83312000Y-119253000D01*
X83332000Y-119253000D01*
X83332000Y-119507000D01*
X83312000Y-119507000D01*
X83312000Y-119527000D01*
X83058000Y-119527000D01*
X83058000Y-119507000D01*
X83038000Y-119507000D01*
X83038000Y-119253000D01*
X83058000Y-119253000D01*
X83058000Y-118059845D01*
X82828110Y-117938524D01*
X82418076Y-118108355D01*
X81989817Y-118498642D01*
X81929606Y-118626853D01*
X81927474Y-118626429D01*
X81715625Y-118309375D01*
X81224418Y-117981161D01*
X80791256Y-117895000D01*
X80498744Y-117895000D01*
X80065582Y-117981161D01*
X79574375Y-118309375D01*
X79562184Y-118327619D01*
X79553157Y-118282235D01*
X79412809Y-118072191D01*
X79202765Y-117931843D01*
X78955000Y-117882560D01*
X77255000Y-117882560D01*
X77007235Y-117931843D01*
X76797191Y-118072191D01*
X76656843Y-118282235D01*
X76607560Y-118530000D01*
X76607560Y-120230000D01*
X76656843Y-120477765D01*
X76797191Y-120687809D01*
X77007235Y-120828157D01*
X77052619Y-120837184D01*
X77034375Y-120849375D01*
X76706161Y-121340582D01*
X76590908Y-121920000D01*
X76706161Y-122499418D01*
X77034375Y-122990625D01*
X77332761Y-123190000D01*
X77034375Y-123389375D01*
X76706161Y-123880582D01*
X76590908Y-124460000D01*
X76706161Y-125039418D01*
X77034375Y-125530625D01*
X77525582Y-125858839D01*
X77958744Y-125945000D01*
X78251256Y-125945000D01*
X78684418Y-125858839D01*
X79175625Y-125530625D01*
X79215879Y-125470380D01*
X79865271Y-126119773D01*
X79907671Y-126183229D01*
X80159063Y-126351204D01*
X80380748Y-126395300D01*
X80380752Y-126395300D01*
X80455599Y-126410188D01*
X80530446Y-126395300D01*
X124306853Y-126395300D01*
X124381700Y-126410188D01*
X124456547Y-126395300D01*
X124456552Y-126395300D01*
X124678237Y-126351204D01*
X124929629Y-126183229D01*
X124972031Y-126119770D01*
X125454311Y-125637491D01*
X125785582Y-125858839D01*
X126218744Y-125945000D01*
X126511256Y-125945000D01*
X126944418Y-125858839D01*
X127435625Y-125530625D01*
X127763839Y-125039418D01*
X127879092Y-124460000D01*
X127763839Y-123880582D01*
X127435625Y-123389375D01*
X127137239Y-123190000D01*
X127435625Y-122990625D01*
X127763839Y-122499418D01*
X127879092Y-121920000D01*
X127763839Y-121340582D01*
X127435625Y-120849375D01*
X127137239Y-120650000D01*
X127435625Y-120450625D01*
X127763839Y-119959418D01*
X127879092Y-119380000D01*
X127763839Y-118800582D01*
X127560916Y-118496886D01*
X128170001Y-117887801D01*
X128170001Y-129520727D01*
X128152151Y-129861322D01*
X128101816Y-130179124D01*
X128018541Y-130489910D01*
X127903229Y-130790309D01*
X127757153Y-131076999D01*
X127581910Y-131346849D01*
X127379424Y-131596899D01*
X127151903Y-131824421D01*
X126901853Y-132026907D01*
X126631999Y-132202153D01*
X126345306Y-132348230D01*
X126044918Y-132463538D01*
X125734123Y-132546816D01*
X125416322Y-132597151D01*
X125056532Y-132616007D01*
X124980020Y-132624049D01*
X124904979Y-132640000D01*
X74485021Y-132640000D01*
X74409980Y-132624049D01*
X74333468Y-132616007D01*
X73973678Y-132597151D01*
X73655876Y-132546816D01*
X73345090Y-132463541D01*
X73044691Y-132348229D01*
X72758001Y-132202153D01*
X72488151Y-132026910D01*
X72238101Y-131824424D01*
X72010579Y-131596903D01*
X71808093Y-131346853D01*
X71632847Y-131076999D01*
X71486770Y-130790306D01*
X71371462Y-130489918D01*
X71288184Y-130179123D01*
X71237849Y-129861322D01*
X71218993Y-129501532D01*
X71210951Y-129425020D01*
X71195000Y-129349979D01*
X71195000Y-129145159D01*
X72310000Y-129145159D01*
X72310000Y-129934841D01*
X72612199Y-130664412D01*
X73170588Y-131222801D01*
X73900159Y-131525000D01*
X74689841Y-131525000D01*
X75419412Y-131222801D01*
X75977801Y-130664412D01*
X76280000Y-129934841D01*
X76280000Y-129145159D01*
X123110000Y-129145159D01*
X123110000Y-129934841D01*
X123412199Y-130664412D01*
X123970588Y-131222801D01*
X124700159Y-131525000D01*
X125489841Y-131525000D01*
X126219412Y-131222801D01*
X126777801Y-130664412D01*
X127080000Y-129934841D01*
X127080000Y-129145159D01*
X126777801Y-128415588D01*
X126219412Y-127857199D01*
X125489841Y-127555000D01*
X124700159Y-127555000D01*
X123970588Y-127857199D01*
X123412199Y-128415588D01*
X123110000Y-129145159D01*
X76280000Y-129145159D01*
X75977801Y-128415588D01*
X75419412Y-127857199D01*
X74689841Y-127555000D01*
X73900159Y-127555000D01*
X73170588Y-127857199D01*
X72612199Y-128415588D01*
X72310000Y-129145159D01*
X71195000Y-129145159D01*
X71195000Y-71310021D01*
X71210951Y-71234980D01*
X71218993Y-71158468D01*
X71237849Y-70798678D01*
X71249493Y-70725159D01*
X72310000Y-70725159D01*
X72310000Y-71514841D01*
X72612199Y-72244412D01*
X73170588Y-72802801D01*
X73900159Y-73105000D01*
X74689841Y-73105000D01*
X75419412Y-72802801D01*
X75977801Y-72244412D01*
X76280000Y-71514841D01*
X76280000Y-70725159D01*
X123110000Y-70725159D01*
X123110000Y-71514841D01*
X123412199Y-72244412D01*
X123970588Y-72802801D01*
X124700159Y-73105000D01*
X125489841Y-73105000D01*
X126219412Y-72802801D01*
X126777801Y-72244412D01*
X127080000Y-71514841D01*
X127080000Y-70725159D01*
X126777801Y-69995588D01*
X126219412Y-69437199D01*
X125489841Y-69135000D01*
X124700159Y-69135000D01*
X123970588Y-69437199D01*
X123412199Y-69995588D01*
X123110000Y-70725159D01*
X76280000Y-70725159D01*
X75977801Y-69995588D01*
X75419412Y-69437199D01*
X74689841Y-69135000D01*
X73900159Y-69135000D01*
X73170588Y-69437199D01*
X72612199Y-69995588D01*
X72310000Y-70725159D01*
X71249493Y-70725159D01*
X71288184Y-70480877D01*
X71371462Y-70170082D01*
X71486770Y-69869694D01*
X71632847Y-69583001D01*
X71808093Y-69313147D01*
X72010579Y-69063097D01*
X72238101Y-68835576D01*
X72488151Y-68633090D01*
X72758001Y-68457847D01*
X73044691Y-68311771D01*
X73345090Y-68196459D01*
X73655876Y-68113184D01*
X73973678Y-68062849D01*
X74333468Y-68043993D01*
X74409980Y-68035951D01*
X74485021Y-68020000D01*
X124904979Y-68020000D01*
X124980020Y-68035951D01*
G36*
X80085371Y-123799873D02*
X80127771Y-123863329D01*
X80379163Y-124031304D01*
X80600848Y-124075400D01*
X80600852Y-124075400D01*
X80675700Y-124090288D01*
X80750548Y-124075400D01*
X110061053Y-124075400D01*
X110135900Y-124090288D01*
X110210747Y-124075400D01*
X110210752Y-124075400D01*
X110432437Y-124031304D01*
X110625954Y-123902000D01*
X122466821Y-123902000D01*
X122383524Y-124103110D01*
X122504845Y-124333000D01*
X123698000Y-124333000D01*
X123698000Y-124313000D01*
X123952000Y-124313000D01*
X123952000Y-124333000D01*
X123972000Y-124333000D01*
X123972000Y-124587000D01*
X123952000Y-124587000D01*
X123952000Y-124607000D01*
X123698000Y-124607000D01*
X123698000Y-124587000D01*
X122504845Y-124587000D01*
X122383524Y-124816890D01*
X122407717Y-124875300D01*
X80770402Y-124875300D01*
X79870631Y-123975530D01*
X79828229Y-123912071D01*
X79576837Y-123744096D01*
X79387474Y-123706429D01*
X79175625Y-123389375D01*
X78877239Y-123190000D01*
X79175625Y-122990625D01*
X79215879Y-122930380D01*
X80085371Y-123799873D01*
X80085371Y-123799873D01*
G37*
X80085371Y-123799873D02*
X80127771Y-123863329D01*
X80379163Y-124031304D01*
X80600848Y-124075400D01*
X80600852Y-124075400D01*
X80675700Y-124090288D01*
X80750548Y-124075400D01*
X110061053Y-124075400D01*
X110135900Y-124090288D01*
X110210747Y-124075400D01*
X110210752Y-124075400D01*
X110432437Y-124031304D01*
X110625954Y-123902000D01*
X122466821Y-123902000D01*
X122383524Y-124103110D01*
X122504845Y-124333000D01*
X123698000Y-124333000D01*
X123698000Y-124313000D01*
X123952000Y-124313000D01*
X123952000Y-124333000D01*
X123972000Y-124333000D01*
X123972000Y-124587000D01*
X123952000Y-124587000D01*
X123952000Y-124607000D01*
X123698000Y-124607000D01*
X123698000Y-124587000D01*
X122504845Y-124587000D01*
X122383524Y-124816890D01*
X122407717Y-124875300D01*
X80770402Y-124875300D01*
X79870631Y-123975530D01*
X79828229Y-123912071D01*
X79576837Y-123744096D01*
X79387474Y-123706429D01*
X79175625Y-123389375D01*
X78877239Y-123190000D01*
X79175625Y-122990625D01*
X79215879Y-122930380D01*
X80085371Y-123799873D01*
G36*
X122426161Y-116260582D02*
X122310908Y-116840000D01*
X122426161Y-117419418D01*
X122754375Y-117910625D01*
X123052761Y-118110000D01*
X122754375Y-118309375D01*
X122426161Y-118800582D01*
X122310908Y-119380000D01*
X122393516Y-119795300D01*
X120242440Y-119795300D01*
X120242440Y-118530000D01*
X120193157Y-118282235D01*
X120052809Y-118072191D01*
X119842765Y-117931843D01*
X119595000Y-117882560D01*
X117895000Y-117882560D01*
X117647235Y-117931843D01*
X117437191Y-118072191D01*
X117296843Y-118282235D01*
X117287816Y-118327619D01*
X117275625Y-118309375D01*
X116784418Y-117981161D01*
X116351256Y-117895000D01*
X116058744Y-117895000D01*
X115625582Y-117981161D01*
X115134375Y-118309375D01*
X114921157Y-118628478D01*
X114860183Y-118498642D01*
X114431924Y-118108355D01*
X114357622Y-118077580D01*
X116199902Y-116235300D01*
X122443054Y-116235300D01*
X122426161Y-116260582D01*
X122426161Y-116260582D01*
G37*
X122426161Y-116260582D02*
X122310908Y-116840000D01*
X122426161Y-117419418D01*
X122754375Y-117910625D01*
X123052761Y-118110000D01*
X122754375Y-118309375D01*
X122426161Y-118800582D01*
X122310908Y-119380000D01*
X122393516Y-119795300D01*
X120242440Y-119795300D01*
X120242440Y-118530000D01*
X120193157Y-118282235D01*
X120052809Y-118072191D01*
X119842765Y-117931843D01*
X119595000Y-117882560D01*
X117895000Y-117882560D01*
X117647235Y-117931843D01*
X117437191Y-118072191D01*
X117296843Y-118282235D01*
X117287816Y-118327619D01*
X117275625Y-118309375D01*
X116784418Y-117981161D01*
X116351256Y-117895000D01*
X116058744Y-117895000D01*
X115625582Y-117981161D01*
X115134375Y-118309375D01*
X114921157Y-118628478D01*
X114860183Y-118498642D01*
X114431924Y-118108355D01*
X114357622Y-118077580D01*
X116199902Y-116235300D01*
X122443054Y-116235300D01*
X122426161Y-116260582D01*
G36*
X113792000Y-119253000D02*
X113812000Y-119253000D01*
X113812000Y-119507000D01*
X113792000Y-119507000D01*
X113792000Y-119527000D01*
X113538000Y-119527000D01*
X113538000Y-119507000D01*
X113518000Y-119507000D01*
X113518000Y-119253000D01*
X113538000Y-119253000D01*
X113538000Y-119233000D01*
X113792000Y-119233000D01*
X113792000Y-119253000D01*
X113792000Y-119253000D01*
G37*
X113792000Y-119253000D02*
X113812000Y-119253000D01*
X113812000Y-119507000D01*
X113792000Y-119507000D01*
X113792000Y-119527000D01*
X113538000Y-119527000D01*
X113538000Y-119507000D01*
X113518000Y-119507000D01*
X113518000Y-119253000D01*
X113538000Y-119253000D01*
X113538000Y-119233000D01*
X113792000Y-119233000D01*
X113792000Y-119253000D01*
G36*
X103632000Y-119253000D02*
X103652000Y-119253000D01*
X103652000Y-119507000D01*
X103632000Y-119507000D01*
X103632000Y-119527000D01*
X103378000Y-119527000D01*
X103378000Y-119507000D01*
X103358000Y-119507000D01*
X103358000Y-119253000D01*
X103378000Y-119253000D01*
X103378000Y-119233000D01*
X103632000Y-119233000D01*
X103632000Y-119253000D01*
X103632000Y-119253000D01*
G37*
X103632000Y-119253000D02*
X103652000Y-119253000D01*
X103652000Y-119507000D01*
X103632000Y-119507000D01*
X103632000Y-119527000D01*
X103378000Y-119527000D01*
X103378000Y-119507000D01*
X103358000Y-119507000D01*
X103358000Y-119253000D01*
X103378000Y-119253000D01*
X103378000Y-119233000D01*
X103632000Y-119233000D01*
X103632000Y-119253000D01*
G36*
X122383524Y-106323110D02*
X122504845Y-106553000D01*
X123698000Y-106553000D01*
X123698000Y-106533000D01*
X123952000Y-106533000D01*
X123952000Y-106553000D01*
X123972000Y-106553000D01*
X123972000Y-106807000D01*
X123952000Y-106807000D01*
X123952000Y-106827000D01*
X123698000Y-106827000D01*
X123698000Y-106807000D01*
X122504845Y-106807000D01*
X122383524Y-107036890D01*
X122553355Y-107446924D01*
X122943642Y-107875183D01*
X123073478Y-107936157D01*
X122754375Y-108149375D01*
X122426161Y-108640582D01*
X122310908Y-109220000D01*
X122393516Y-109635300D01*
X118510946Y-109635300D01*
X118436099Y-109620412D01*
X118361252Y-109635300D01*
X118361248Y-109635300D01*
X118139563Y-109679396D01*
X117888171Y-109847371D01*
X117845771Y-109910827D01*
X109530698Y-118225901D01*
X109303026Y-118073776D01*
X121301502Y-106075300D01*
X122486164Y-106075300D01*
X122383524Y-106323110D01*
X122383524Y-106323110D01*
G37*
X122383524Y-106323110D02*
X122504845Y-106553000D01*
X123698000Y-106553000D01*
X123698000Y-106533000D01*
X123952000Y-106533000D01*
X123952000Y-106553000D01*
X123972000Y-106553000D01*
X123972000Y-106807000D01*
X123952000Y-106807000D01*
X123952000Y-106827000D01*
X123698000Y-106827000D01*
X123698000Y-106807000D01*
X122504845Y-106807000D01*
X122383524Y-107036890D01*
X122553355Y-107446924D01*
X122943642Y-107875183D01*
X123073478Y-107936157D01*
X122754375Y-108149375D01*
X122426161Y-108640582D01*
X122310908Y-109220000D01*
X122393516Y-109635300D01*
X118510946Y-109635300D01*
X118436099Y-109620412D01*
X118361252Y-109635300D01*
X118361248Y-109635300D01*
X118139563Y-109679396D01*
X117888171Y-109847371D01*
X117845771Y-109910827D01*
X109530698Y-118225901D01*
X109303026Y-118073776D01*
X121301502Y-106075300D01*
X122486164Y-106075300D01*
X122383524Y-106323110D01*
G36*
X126492000Y-116713000D02*
X126512000Y-116713000D01*
X126512000Y-116967000D01*
X126492000Y-116967000D01*
X126492000Y-116987000D01*
X126238000Y-116987000D01*
X126238000Y-116967000D01*
X126218000Y-116967000D01*
X126218000Y-116713000D01*
X126238000Y-116713000D01*
X126238000Y-116693000D01*
X126492000Y-116693000D01*
X126492000Y-116713000D01*
X126492000Y-116713000D01*
G37*
X126492000Y-116713000D02*
X126512000Y-116713000D01*
X126512000Y-116967000D01*
X126492000Y-116967000D01*
X126492000Y-116987000D01*
X126238000Y-116987000D01*
X126238000Y-116967000D01*
X126218000Y-116967000D01*
X126218000Y-116713000D01*
X126238000Y-116713000D01*
X126238000Y-116693000D01*
X126492000Y-116693000D01*
X126492000Y-116713000D01*
G36*
X128170001Y-113291196D02*
X127526542Y-112647739D01*
X127636645Y-112526924D01*
X127806476Y-112116890D01*
X127685155Y-111887000D01*
X126492000Y-111887000D01*
X126492000Y-111907000D01*
X126238000Y-111907000D01*
X126238000Y-111887000D01*
X126218000Y-111887000D01*
X126218000Y-111633000D01*
X126238000Y-111633000D01*
X126238000Y-111613000D01*
X126492000Y-111613000D01*
X126492000Y-111633000D01*
X127685155Y-111633000D01*
X127806476Y-111403110D01*
X127799058Y-111385200D01*
X128170001Y-111385200D01*
X128170001Y-113291196D01*
X128170001Y-113291196D01*
G37*
X128170001Y-113291196D02*
X127526542Y-112647739D01*
X127636645Y-112526924D01*
X127806476Y-112116890D01*
X127685155Y-111887000D01*
X126492000Y-111887000D01*
X126492000Y-111907000D01*
X126238000Y-111907000D01*
X126238000Y-111887000D01*
X126218000Y-111887000D01*
X126218000Y-111633000D01*
X126238000Y-111633000D01*
X126238000Y-111613000D01*
X126492000Y-111613000D01*
X126492000Y-111633000D01*
X127685155Y-111633000D01*
X127806476Y-111403110D01*
X127799058Y-111385200D01*
X128170001Y-111385200D01*
X128170001Y-113291196D01*
G36*
X128170001Y-107410199D02*
X127806209Y-107046408D01*
X127879092Y-106680000D01*
X127763839Y-106100582D01*
X127435625Y-105609375D01*
X127137239Y-105410000D01*
X127435625Y-105210625D01*
X127763839Y-104719418D01*
X127879092Y-104140000D01*
X127763839Y-103560582D01*
X127435625Y-103069375D01*
X127137239Y-102870000D01*
X127435625Y-102670625D01*
X127763839Y-102179418D01*
X127879092Y-101600000D01*
X127763839Y-101020582D01*
X127435625Y-100529375D01*
X127116522Y-100316157D01*
X127246358Y-100255183D01*
X127636645Y-99826924D01*
X127806476Y-99416890D01*
X127685155Y-99187000D01*
X126492000Y-99187000D01*
X126492000Y-99207000D01*
X126238000Y-99207000D01*
X126238000Y-99187000D01*
X126218000Y-99187000D01*
X126218000Y-98933000D01*
X126238000Y-98933000D01*
X126238000Y-98913000D01*
X126492000Y-98913000D01*
X126492000Y-98933000D01*
X127685155Y-98933000D01*
X127806476Y-98703110D01*
X127636645Y-98293076D01*
X127246358Y-97864817D01*
X127118147Y-97804606D01*
X127118571Y-97802474D01*
X127435625Y-97590625D01*
X127763839Y-97099418D01*
X127879092Y-96520000D01*
X127763839Y-95940582D01*
X127521702Y-95578199D01*
X128077073Y-95022829D01*
X128140529Y-94980429D01*
X128170000Y-94936322D01*
X128170001Y-107410199D01*
X128170001Y-107410199D01*
G37*
X128170001Y-107410199D02*
X127806209Y-107046408D01*
X127879092Y-106680000D01*
X127763839Y-106100582D01*
X127435625Y-105609375D01*
X127137239Y-105410000D01*
X127435625Y-105210625D01*
X127763839Y-104719418D01*
X127879092Y-104140000D01*
X127763839Y-103560582D01*
X127435625Y-103069375D01*
X127137239Y-102870000D01*
X127435625Y-102670625D01*
X127763839Y-102179418D01*
X127879092Y-101600000D01*
X127763839Y-101020582D01*
X127435625Y-100529375D01*
X127116522Y-100316157D01*
X127246358Y-100255183D01*
X127636645Y-99826924D01*
X127806476Y-99416890D01*
X127685155Y-99187000D01*
X126492000Y-99187000D01*
X126492000Y-99207000D01*
X126238000Y-99207000D01*
X126238000Y-99187000D01*
X126218000Y-99187000D01*
X126218000Y-98933000D01*
X126238000Y-98933000D01*
X126238000Y-98913000D01*
X126492000Y-98913000D01*
X126492000Y-98933000D01*
X127685155Y-98933000D01*
X127806476Y-98703110D01*
X127636645Y-98293076D01*
X127246358Y-97864817D01*
X127118147Y-97804606D01*
X127118571Y-97802474D01*
X127435625Y-97590625D01*
X127763839Y-97099418D01*
X127879092Y-96520000D01*
X127763839Y-95940582D01*
X127521702Y-95578199D01*
X128077073Y-95022829D01*
X128140529Y-94980429D01*
X128170000Y-94936322D01*
X128170001Y-107410199D01*
G36*
X126492000Y-91313000D02*
X126512000Y-91313000D01*
X126512000Y-91567000D01*
X126492000Y-91567000D01*
X126492000Y-91587000D01*
X126238000Y-91587000D01*
X126238000Y-91567000D01*
X126218000Y-91567000D01*
X126218000Y-91313000D01*
X126238000Y-91313000D01*
X126238000Y-91293000D01*
X126492000Y-91293000D01*
X126492000Y-91313000D01*
X126492000Y-91313000D01*
G37*
X126492000Y-91313000D02*
X126512000Y-91313000D01*
X126512000Y-91567000D01*
X126492000Y-91567000D01*
X126492000Y-91587000D01*
X126238000Y-91587000D01*
X126238000Y-91567000D01*
X126218000Y-91567000D01*
X126218000Y-91313000D01*
X126238000Y-91313000D01*
X126238000Y-91293000D01*
X126492000Y-91293000D01*
X126492000Y-91313000D01*
G36*
X110054375Y-82350625D02*
X110545582Y-82678839D01*
X110978744Y-82765000D01*
X111271256Y-82765000D01*
X111704418Y-82678839D01*
X112035689Y-82457491D01*
X113882671Y-84304473D01*
X113925071Y-84367929D01*
X113988527Y-84410329D01*
X114176462Y-84535904D01*
X114224605Y-84545480D01*
X114398148Y-84580000D01*
X114398152Y-84580000D01*
X114473000Y-84594888D01*
X114547848Y-84580000D01*
X122546822Y-84580000D01*
X122754375Y-84890625D01*
X123073478Y-85103843D01*
X122943642Y-85164817D01*
X122553355Y-85593076D01*
X122383524Y-86003110D01*
X122504845Y-86233000D01*
X123698000Y-86233000D01*
X123698000Y-86213000D01*
X123952000Y-86213000D01*
X123952000Y-86233000D01*
X123972000Y-86233000D01*
X123972000Y-86487000D01*
X123952000Y-86487000D01*
X123952000Y-86507000D01*
X123698000Y-86507000D01*
X123698000Y-86487000D01*
X122504845Y-86487000D01*
X122383524Y-86716890D01*
X122553355Y-87126924D01*
X122943642Y-87555183D01*
X123073478Y-87616157D01*
X122754375Y-87829375D01*
X122546822Y-88140000D01*
X114787802Y-88140000D01*
X109244104Y-82596303D01*
X109351924Y-82551645D01*
X109780183Y-82161358D01*
X109841157Y-82031522D01*
X110054375Y-82350625D01*
X110054375Y-82350625D01*
G37*
X110054375Y-82350625D02*
X110545582Y-82678839D01*
X110978744Y-82765000D01*
X111271256Y-82765000D01*
X111704418Y-82678839D01*
X112035689Y-82457491D01*
X113882671Y-84304473D01*
X113925071Y-84367929D01*
X113988527Y-84410329D01*
X114176462Y-84535904D01*
X114224605Y-84545480D01*
X114398148Y-84580000D01*
X114398152Y-84580000D01*
X114473000Y-84594888D01*
X114547848Y-84580000D01*
X122546822Y-84580000D01*
X122754375Y-84890625D01*
X123073478Y-85103843D01*
X122943642Y-85164817D01*
X122553355Y-85593076D01*
X122383524Y-86003110D01*
X122504845Y-86233000D01*
X123698000Y-86233000D01*
X123698000Y-86213000D01*
X123952000Y-86213000D01*
X123952000Y-86233000D01*
X123972000Y-86233000D01*
X123972000Y-86487000D01*
X123952000Y-86487000D01*
X123952000Y-86507000D01*
X123698000Y-86507000D01*
X123698000Y-86487000D01*
X122504845Y-86487000D01*
X122383524Y-86716890D01*
X122553355Y-87126924D01*
X122943642Y-87555183D01*
X123073478Y-87616157D01*
X122754375Y-87829375D01*
X122546822Y-88140000D01*
X114787802Y-88140000D01*
X109244104Y-82596303D01*
X109351924Y-82551645D01*
X109780183Y-82161358D01*
X109841157Y-82031522D01*
X110054375Y-82350625D01*
G36*
X126492000Y-81153000D02*
X126512000Y-81153000D01*
X126512000Y-81407000D01*
X126492000Y-81407000D01*
X126492000Y-81427000D01*
X126238000Y-81427000D01*
X126238000Y-81407000D01*
X126218000Y-81407000D01*
X126218000Y-81153000D01*
X126238000Y-81153000D01*
X126238000Y-81133000D01*
X126492000Y-81133000D01*
X126492000Y-81153000D01*
X126492000Y-81153000D01*
G37*
X126492000Y-81153000D02*
X126512000Y-81153000D01*
X126512000Y-81407000D01*
X126492000Y-81407000D01*
X126492000Y-81427000D01*
X126238000Y-81427000D01*
X126238000Y-81407000D01*
X126218000Y-81407000D01*
X126218000Y-81153000D01*
X126238000Y-81153000D01*
X126238000Y-81133000D01*
X126492000Y-81133000D01*
X126492000Y-81153000D01*
M02*
