G04 #@! TF.GenerationSoftware,KiCad,Pcbnew,5.0.0-rc1-44a33f2~62~ubuntu17.10.1*
G04 #@! TF.CreationDate,2018-03-28T23:14:57+09:00*
G04 #@! TF.ProjectId,RaspiBBHat,526173706942424861742E6B69636164,rev?*
G04 #@! TF.SameCoordinates,Original*
G04 #@! TF.FileFunction,Copper,L2,Bot,Signal*
G04 #@! TF.FilePolarity,Positive*
%FSLAX46Y46*%
G04 Gerber Fmt 4.6, Leading zero omitted, Abs format (unit mm)*
G04 Created by KiCad (PCBNEW 5.0.0-rc1-44a33f2~62~ubuntu17.10.1) date Wed Mar 28 23:14:57 2018*
%MOMM*%
%LPD*%
G01*
G04 APERTURE LIST*
%ADD10R,1.700000X1.700000*%
%ADD11O,1.700000X1.700000*%
%ADD12C,0.800000*%
%ADD13C,0.250000*%
%ADD14C,0.254000*%
G04 APERTURE END LIST*
D10*
X78105000Y-81280000D03*
D11*
X78105000Y-78740000D03*
X78105000Y-76200000D03*
X78105000Y-124460000D03*
X78105000Y-121920000D03*
D10*
X78105000Y-119380000D03*
X123825000Y-76200000D03*
D11*
X126365000Y-76200000D03*
X123825000Y-78740000D03*
X126365000Y-78740000D03*
X123825000Y-81280000D03*
X126365000Y-81280000D03*
X123825000Y-83820000D03*
X126365000Y-83820000D03*
X123825000Y-86360000D03*
X126365000Y-86360000D03*
X123825000Y-88900000D03*
X126365000Y-88900000D03*
X123825000Y-91440000D03*
X126365000Y-91440000D03*
X123825000Y-93980000D03*
X126365000Y-93980000D03*
X123825000Y-96520000D03*
X126365000Y-96520000D03*
X123825000Y-99060000D03*
X126365000Y-99060000D03*
X123825000Y-101600000D03*
X126365000Y-101600000D03*
X123825000Y-104140000D03*
X126365000Y-104140000D03*
X123825000Y-106680000D03*
X126365000Y-106680000D03*
X123825000Y-109220000D03*
X126365000Y-109220000D03*
X123825000Y-111760000D03*
X126365000Y-111760000D03*
X123825000Y-114300000D03*
X126365000Y-114300000D03*
X123825000Y-116840000D03*
X126365000Y-116840000D03*
X123825000Y-119380000D03*
X126365000Y-119380000D03*
X123825000Y-121920000D03*
X126365000Y-121920000D03*
X123825000Y-124460000D03*
X126365000Y-124460000D03*
D10*
X118745000Y-81280000D03*
D11*
X116205000Y-81280000D03*
X113665000Y-81280000D03*
X111125000Y-81280000D03*
X108585000Y-81280000D03*
X106045000Y-81280000D03*
X103505000Y-81280000D03*
X100965000Y-81280000D03*
X98425000Y-81280000D03*
X95885000Y-81280000D03*
X93345000Y-81280000D03*
X90805000Y-81280000D03*
X88265000Y-81280000D03*
X85725000Y-81280000D03*
X83185000Y-81280000D03*
X80645000Y-81280000D03*
X80645000Y-119380000D03*
X83185000Y-119380000D03*
X85725000Y-119380000D03*
X88265000Y-119380000D03*
X90805000Y-119380000D03*
X93345000Y-119380000D03*
X95885000Y-119380000D03*
X98425000Y-119380000D03*
X100965000Y-119380000D03*
X103505000Y-119380000D03*
X106045000Y-119380000D03*
X108585000Y-119380000D03*
X111125000Y-119380000D03*
X113665000Y-119380000D03*
X116205000Y-119380000D03*
D10*
X118745000Y-119380000D03*
D12*
X112500000Y-108000000D03*
X114000000Y-116000000D03*
X118505100Y-97451500D03*
X117244600Y-98734900D03*
X115717200Y-102287500D03*
X116033000Y-105143300D03*
X114857900Y-106508200D03*
X128000900Y-110350200D03*
X115045200Y-89840700D03*
D13*
X114000000Y-109500000D02*
X112500000Y-108000000D01*
X114000000Y-116000000D02*
X114000000Y-109500000D01*
X123825000Y-121920000D02*
X122649700Y-121920000D01*
X78105000Y-76200000D02*
X78105000Y-77375300D01*
X122593000Y-121976700D02*
X122649700Y-121920000D01*
X99334800Y-121976700D02*
X122593000Y-121976700D01*
X97155000Y-119796900D02*
X99334800Y-121976700D01*
X97155000Y-107339800D02*
X97155000Y-119796900D01*
X76926700Y-87111500D02*
X97155000Y-107339800D01*
X76926700Y-78186200D02*
X76926700Y-87111500D01*
X77737600Y-77375300D02*
X76926700Y-78186200D01*
X78105000Y-77375300D02*
X77737600Y-77375300D01*
X125997600Y-118015300D02*
X126365000Y-118015300D01*
X125189700Y-118823200D02*
X125997600Y-118015300D01*
X125189700Y-122287400D02*
X125189700Y-118823200D01*
X124192400Y-123284700D02*
X125189700Y-122287400D01*
X123825000Y-123284700D02*
X124192400Y-123284700D01*
X123825000Y-124460000D02*
X123825000Y-123284700D01*
X125997600Y-100235300D02*
X126365000Y-100235300D01*
X125189700Y-101043200D02*
X125997600Y-100235300D01*
X125189700Y-104507400D02*
X125189700Y-101043200D01*
X124192400Y-105504700D02*
X125189700Y-104507400D01*
X123825000Y-105504700D02*
X124192400Y-105504700D01*
X123825000Y-106680000D02*
X123825000Y-105504700D01*
X126365000Y-99060000D02*
X126365000Y-99647600D01*
X126365000Y-99647600D02*
X126365000Y-100235300D01*
X126732400Y-92615300D02*
X126365000Y-92615300D01*
X127540300Y-93423200D02*
X126732400Y-92615300D01*
X127540300Y-98472300D02*
X127540300Y-93423200D01*
X126365000Y-99647600D02*
X127540300Y-98472300D01*
X126365000Y-91440000D02*
X126365000Y-92615300D01*
X125997600Y-90264700D02*
X126365000Y-90264700D01*
X125189700Y-89456800D02*
X125997600Y-90264700D01*
X125189700Y-88532600D02*
X125189700Y-89456800D01*
X124192400Y-87535300D02*
X125189700Y-88532600D01*
X123825000Y-87535300D02*
X124192400Y-87535300D01*
X123825000Y-86360000D02*
X123825000Y-87535300D01*
X126365000Y-91440000D02*
X126365000Y-90264700D01*
X126365000Y-117133800D02*
X126365000Y-118015300D01*
X89440300Y-81647400D02*
X89440300Y-81280000D01*
X90248200Y-82455300D02*
X89440300Y-81647400D01*
X106601700Y-82455300D02*
X90248200Y-82455300D01*
X107409700Y-81647300D02*
X106601700Y-82455300D01*
X107409700Y-81280000D02*
X107409700Y-81647300D01*
X108585000Y-81280000D02*
X107409700Y-81280000D01*
X88265000Y-81280000D02*
X89440300Y-81280000D01*
X104680300Y-119747400D02*
X104680300Y-119380000D01*
X105488200Y-120555300D02*
X104680300Y-119747400D01*
X111681700Y-120555300D02*
X105488200Y-120555300D01*
X112489700Y-119747300D02*
X111681700Y-120555300D01*
X112489700Y-119380000D02*
X112489700Y-119747300D01*
X113665000Y-119380000D02*
X112489700Y-119380000D01*
X103505000Y-119380000D02*
X104680300Y-119380000D01*
X126365000Y-117133800D02*
X126365000Y-116840000D01*
X126732400Y-112935300D02*
X126365000Y-112935300D01*
X127540300Y-113743200D02*
X126732400Y-112935300D01*
X127540300Y-114799200D02*
X127540300Y-113743200D01*
X126674800Y-115664700D02*
X127540300Y-114799200D01*
X126365000Y-115664700D02*
X126674800Y-115664700D01*
X126365000Y-116840000D02*
X126365000Y-115664700D01*
X126365000Y-111760000D02*
X126365000Y-112935300D01*
X117569700Y-80912600D02*
X117569700Y-81280000D01*
X116761800Y-80104700D02*
X117569700Y-80912600D01*
X100408300Y-80104700D02*
X116761800Y-80104700D01*
X99600300Y-80912700D02*
X100408300Y-80104700D01*
X99600300Y-81280000D02*
X99600300Y-80912700D01*
X98425000Y-81280000D02*
X99600300Y-81280000D01*
X118745000Y-81280000D02*
X117569700Y-81280000D01*
X122649700Y-101596100D02*
X118505100Y-97451500D01*
X122649700Y-101600000D02*
X122649700Y-101596100D01*
X123825000Y-101600000D02*
X122649700Y-101600000D01*
X123825000Y-104140000D02*
X122649700Y-104140000D01*
X117244600Y-98734900D02*
X122649700Y-104140000D01*
X123825000Y-109220000D02*
X122649700Y-109220000D01*
X115717200Y-102287500D02*
X122649700Y-109220000D01*
X123825000Y-111760000D02*
X122649700Y-111760000D01*
X116033000Y-105143300D02*
X122649700Y-111760000D01*
X123825000Y-114300000D02*
X122649700Y-114300000D01*
X114857900Y-106508200D02*
X122649700Y-114300000D01*
X99761100Y-104111400D02*
X78105000Y-82455300D01*
X99761100Y-119851600D02*
X99761100Y-104111400D01*
X101382800Y-121473300D02*
X99761100Y-119851600D01*
X119191700Y-121473300D02*
X101382800Y-121473300D01*
X123825000Y-116840000D02*
X119191700Y-121473300D01*
X78105000Y-81280000D02*
X78105000Y-82455300D01*
X89440300Y-119747300D02*
X95338000Y-125645000D01*
X128000900Y-122000000D02*
X128000900Y-110350200D01*
X125189500Y-124782700D02*
X125189500Y-123971200D01*
X126810900Y-123190000D02*
X128000900Y-122000000D01*
X125970700Y-123190000D02*
X126810900Y-123190000D01*
X88265000Y-119380000D02*
X89440300Y-119380000D01*
X124327200Y-125645000D02*
X125189500Y-124782700D01*
X95338000Y-125645000D02*
X124327200Y-125645000D01*
X125189500Y-123971200D02*
X125970700Y-123190000D01*
X89440300Y-119380000D02*
X89440300Y-119747300D01*
X125189700Y-94347400D02*
X125189700Y-93980000D01*
X124381800Y-95155300D02*
X125189700Y-94347400D01*
X119738900Y-95155300D02*
X124381800Y-95155300D01*
X114131200Y-100763000D02*
X119738900Y-95155300D01*
X114131200Y-107717300D02*
X114131200Y-100763000D01*
X114884800Y-108470900D02*
X114131200Y-107717300D01*
X114884800Y-119829400D02*
X114884800Y-108470900D01*
X113691300Y-121022900D02*
X114884800Y-119829400D01*
X103415900Y-121022900D02*
X113691300Y-121022900D01*
X102140300Y-119747300D02*
X103415900Y-121022900D01*
X102140300Y-119380000D02*
X102140300Y-119747300D01*
X100965000Y-119380000D02*
X102140300Y-119380000D01*
X126365000Y-93980000D02*
X125189700Y-93980000D01*
X106045000Y-98840900D02*
X115045200Y-89840700D01*
X106045000Y-119380000D02*
X106045000Y-98840900D01*
X126672600Y-85184700D02*
X126365000Y-85184700D01*
X127551600Y-84305700D02*
X126672600Y-85184700D01*
X127551600Y-83339200D02*
X127551600Y-84305700D01*
X126849100Y-82636700D02*
X127551600Y-83339200D01*
X123306600Y-82636700D02*
X126849100Y-82636700D01*
X108585000Y-97358300D02*
X123306600Y-82636700D01*
X108585000Y-119380000D02*
X108585000Y-97358300D01*
X126365000Y-86360000D02*
X126365000Y-85184700D01*
X126365000Y-83820000D02*
X125189700Y-83820000D01*
X111125000Y-119380000D02*
X111125000Y-118204700D01*
X111125000Y-97395700D02*
X111125000Y-118204700D01*
X123525400Y-84995300D02*
X111125000Y-97395700D01*
X124381800Y-84995300D02*
X123525400Y-84995300D01*
X125189700Y-84187400D02*
X124381800Y-84995300D01*
X125189700Y-83820000D02*
X125189700Y-84187400D01*
X126365000Y-78740000D02*
X126365000Y-76200000D01*
X126732300Y-79915300D02*
X126365000Y-79915300D01*
X128001900Y-81184900D02*
X126732300Y-79915300D01*
X128001900Y-109274000D02*
X128001900Y-81184900D01*
X126785900Y-110490000D02*
X128001900Y-109274000D01*
X125934000Y-110490000D02*
X126785900Y-110490000D01*
X125189600Y-111234400D02*
X125934000Y-110490000D01*
X125189600Y-114616700D02*
X125189600Y-111234400D01*
X124330900Y-115475400D02*
X125189600Y-114616700D01*
X123457600Y-115475400D02*
X124330900Y-115475400D01*
X119920300Y-119012700D02*
X123457600Y-115475400D01*
X119920300Y-119380000D02*
X119920300Y-119012700D01*
X118745000Y-119380000D02*
X119920300Y-119380000D01*
X126365000Y-78740000D02*
X126365000Y-79915300D01*
D14*
G36*
X128778000Y-133223000D02*
X127756488Y-133223000D01*
X127773226Y-133210839D01*
X127797012Y-133193558D01*
X127797023Y-133193548D01*
X128106929Y-132942591D01*
X128106939Y-132942584D01*
X128147982Y-132905628D01*
X128164111Y-132891106D01*
X128164120Y-132891096D01*
X128446106Y-132609111D01*
X128497584Y-132551939D01*
X128497591Y-132551929D01*
X128748548Y-132242023D01*
X128748558Y-132242012D01*
X128775908Y-132204367D01*
X128778000Y-132201488D01*
X128778000Y-133223000D01*
X128778000Y-133223000D01*
G37*
X128778000Y-133223000D02*
X127756488Y-133223000D01*
X127773226Y-133210839D01*
X127797012Y-133193558D01*
X127797023Y-133193548D01*
X128106929Y-132942591D01*
X128106939Y-132942584D01*
X128147982Y-132905628D01*
X128164111Y-132891106D01*
X128164120Y-132891096D01*
X128446106Y-132609111D01*
X128497584Y-132551939D01*
X128497591Y-132551929D01*
X128748548Y-132242023D01*
X128748558Y-132242012D01*
X128775908Y-132204367D01*
X128778000Y-132201488D01*
X128778000Y-133223000D01*
G36*
X70614092Y-132204367D02*
X70641442Y-132242012D01*
X70641452Y-132242023D01*
X70892409Y-132551929D01*
X70892416Y-132551939D01*
X70916806Y-132579027D01*
X70943894Y-132609111D01*
X70943904Y-132609120D01*
X71225889Y-132891106D01*
X71283061Y-132942584D01*
X71283071Y-132942591D01*
X71592977Y-133193548D01*
X71592988Y-133193558D01*
X71616774Y-133210839D01*
X71633512Y-133223000D01*
X70612000Y-133223000D01*
X70612000Y-132201488D01*
X70614092Y-132204367D01*
X70614092Y-132204367D01*
G37*
X70614092Y-132204367D02*
X70641442Y-132242012D01*
X70641452Y-132242023D01*
X70892409Y-132551929D01*
X70892416Y-132551939D01*
X70916806Y-132579027D01*
X70943894Y-132609111D01*
X70943904Y-132609120D01*
X71225889Y-132891106D01*
X71283061Y-132942584D01*
X71283071Y-132942591D01*
X71592977Y-133193548D01*
X71592988Y-133193558D01*
X71616774Y-133210839D01*
X71633512Y-133223000D01*
X70612000Y-133223000D01*
X70612000Y-132201488D01*
X70614092Y-132204367D01*
G36*
X124980020Y-68035951D02*
X125056532Y-68043993D01*
X125416322Y-68062849D01*
X125734123Y-68113184D01*
X126044918Y-68196462D01*
X126345306Y-68311770D01*
X126631999Y-68457847D01*
X126901853Y-68633093D01*
X127151903Y-68835579D01*
X127379424Y-69063101D01*
X127581910Y-69313151D01*
X127757153Y-69583001D01*
X127903229Y-69869691D01*
X128018541Y-70170090D01*
X128101816Y-70480876D01*
X128152151Y-70798678D01*
X128170000Y-71139254D01*
X128170000Y-80278198D01*
X127542491Y-79650689D01*
X127763839Y-79319418D01*
X127879092Y-78740000D01*
X127763839Y-78160582D01*
X127435625Y-77669375D01*
X127137239Y-77470000D01*
X127435625Y-77270625D01*
X127763839Y-76779418D01*
X127879092Y-76200000D01*
X127763839Y-75620582D01*
X127435625Y-75129375D01*
X126944418Y-74801161D01*
X126511256Y-74715000D01*
X126218744Y-74715000D01*
X125785582Y-74801161D01*
X125294375Y-75129375D01*
X125282184Y-75147619D01*
X125273157Y-75102235D01*
X125132809Y-74892191D01*
X124922765Y-74751843D01*
X124675000Y-74702560D01*
X122975000Y-74702560D01*
X122727235Y-74751843D01*
X122517191Y-74892191D01*
X122376843Y-75102235D01*
X122327560Y-75350000D01*
X122327560Y-77050000D01*
X122376843Y-77297765D01*
X122517191Y-77507809D01*
X122727235Y-77648157D01*
X122772619Y-77657184D01*
X122754375Y-77669375D01*
X122426161Y-78160582D01*
X122310908Y-78740000D01*
X122426161Y-79319418D01*
X122754375Y-79810625D01*
X123052761Y-80010000D01*
X122754375Y-80209375D01*
X122426161Y-80700582D01*
X122310908Y-81280000D01*
X122426161Y-81859418D01*
X122659645Y-82208852D01*
X115768354Y-89100143D01*
X115631480Y-88963269D01*
X115251074Y-88805700D01*
X114839326Y-88805700D01*
X114458920Y-88963269D01*
X114167769Y-89254420D01*
X114010200Y-89634826D01*
X114010200Y-89800898D01*
X105560528Y-98250571D01*
X105497072Y-98292971D01*
X105454672Y-98356427D01*
X105454671Y-98356428D01*
X105329097Y-98544363D01*
X105270112Y-98840900D01*
X105285001Y-98915752D01*
X105285000Y-118101822D01*
X104974375Y-118309375D01*
X104775000Y-118607761D01*
X104575625Y-118309375D01*
X104084418Y-117981161D01*
X103651256Y-117895000D01*
X103358744Y-117895000D01*
X102925582Y-117981161D01*
X102434375Y-118309375D01*
X102235000Y-118607761D01*
X102035625Y-118309375D01*
X101544418Y-117981161D01*
X101111256Y-117895000D01*
X100818744Y-117895000D01*
X100521100Y-117954205D01*
X100521100Y-104186246D01*
X100535988Y-104111399D01*
X100521100Y-104036552D01*
X100521100Y-104036548D01*
X100477004Y-103814863D01*
X100370539Y-103655527D01*
X100351429Y-103626926D01*
X100351427Y-103626924D01*
X100309029Y-103563471D01*
X100245576Y-103521073D01*
X79352564Y-82628063D01*
X79412809Y-82587809D01*
X79553157Y-82377765D01*
X79562184Y-82332381D01*
X79574375Y-82350625D01*
X80065582Y-82678839D01*
X80498744Y-82765000D01*
X80791256Y-82765000D01*
X81224418Y-82678839D01*
X81715625Y-82350625D01*
X81915000Y-82052239D01*
X82114375Y-82350625D01*
X82605582Y-82678839D01*
X83038744Y-82765000D01*
X83331256Y-82765000D01*
X83764418Y-82678839D01*
X84255625Y-82350625D01*
X84455000Y-82052239D01*
X84654375Y-82350625D01*
X85145582Y-82678839D01*
X85578744Y-82765000D01*
X85871256Y-82765000D01*
X86304418Y-82678839D01*
X86795625Y-82350625D01*
X86995000Y-82052239D01*
X87194375Y-82350625D01*
X87685582Y-82678839D01*
X88118744Y-82765000D01*
X88411256Y-82765000D01*
X88844418Y-82678839D01*
X89175629Y-82457531D01*
X89657870Y-82939772D01*
X89700271Y-83003229D01*
X89951663Y-83171204D01*
X90173348Y-83215300D01*
X90173352Y-83215300D01*
X90248199Y-83230188D01*
X90323046Y-83215300D01*
X106526853Y-83215300D01*
X106601700Y-83230188D01*
X106676547Y-83215300D01*
X106676552Y-83215300D01*
X106898237Y-83171204D01*
X107149629Y-83003229D01*
X107192031Y-82939770D01*
X107674311Y-82457491D01*
X108005582Y-82678839D01*
X108438744Y-82765000D01*
X108731256Y-82765000D01*
X109164418Y-82678839D01*
X109655625Y-82350625D01*
X109855000Y-82052239D01*
X110054375Y-82350625D01*
X110545582Y-82678839D01*
X110978744Y-82765000D01*
X111271256Y-82765000D01*
X111704418Y-82678839D01*
X112195625Y-82350625D01*
X112395000Y-82052239D01*
X112594375Y-82350625D01*
X113085582Y-82678839D01*
X113518744Y-82765000D01*
X113811256Y-82765000D01*
X114244418Y-82678839D01*
X114735625Y-82350625D01*
X114935000Y-82052239D01*
X115134375Y-82350625D01*
X115625582Y-82678839D01*
X116058744Y-82765000D01*
X116351256Y-82765000D01*
X116784418Y-82678839D01*
X117275625Y-82350625D01*
X117287816Y-82332381D01*
X117296843Y-82377765D01*
X117437191Y-82587809D01*
X117647235Y-82728157D01*
X117895000Y-82777440D01*
X119595000Y-82777440D01*
X119842765Y-82728157D01*
X120052809Y-82587809D01*
X120193157Y-82377765D01*
X120242440Y-82130000D01*
X120242440Y-80430000D01*
X120193157Y-80182235D01*
X120052809Y-79972191D01*
X119842765Y-79831843D01*
X119595000Y-79782560D01*
X117895000Y-79782560D01*
X117647235Y-79831843D01*
X117597186Y-79865285D01*
X117352131Y-79620230D01*
X117309729Y-79556771D01*
X117058337Y-79388796D01*
X116836652Y-79344700D01*
X116836647Y-79344700D01*
X116761800Y-79329812D01*
X116686953Y-79344700D01*
X100483148Y-79344700D01*
X100408300Y-79329812D01*
X100333452Y-79344700D01*
X100333448Y-79344700D01*
X100111763Y-79388796D01*
X99860371Y-79556771D01*
X99817971Y-79620227D01*
X99335689Y-80102509D01*
X99004418Y-79881161D01*
X98571256Y-79795000D01*
X98278744Y-79795000D01*
X97845582Y-79881161D01*
X97354375Y-80209375D01*
X97155000Y-80507761D01*
X96955625Y-80209375D01*
X96464418Y-79881161D01*
X96031256Y-79795000D01*
X95738744Y-79795000D01*
X95305582Y-79881161D01*
X94814375Y-80209375D01*
X94615000Y-80507761D01*
X94415625Y-80209375D01*
X93924418Y-79881161D01*
X93491256Y-79795000D01*
X93198744Y-79795000D01*
X92765582Y-79881161D01*
X92274375Y-80209375D01*
X92075000Y-80507761D01*
X91875625Y-80209375D01*
X91384418Y-79881161D01*
X90951256Y-79795000D01*
X90658744Y-79795000D01*
X90225582Y-79881161D01*
X89734375Y-80209375D01*
X89535000Y-80507761D01*
X89335625Y-80209375D01*
X88844418Y-79881161D01*
X88411256Y-79795000D01*
X88118744Y-79795000D01*
X87685582Y-79881161D01*
X87194375Y-80209375D01*
X86995000Y-80507761D01*
X86795625Y-80209375D01*
X86304418Y-79881161D01*
X85871256Y-79795000D01*
X85578744Y-79795000D01*
X85145582Y-79881161D01*
X84654375Y-80209375D01*
X84455000Y-80507761D01*
X84255625Y-80209375D01*
X83764418Y-79881161D01*
X83331256Y-79795000D01*
X83038744Y-79795000D01*
X82605582Y-79881161D01*
X82114375Y-80209375D01*
X81915000Y-80507761D01*
X81715625Y-80209375D01*
X81224418Y-79881161D01*
X80791256Y-79795000D01*
X80498744Y-79795000D01*
X80065582Y-79881161D01*
X79574375Y-80209375D01*
X79562184Y-80227619D01*
X79553157Y-80182235D01*
X79412809Y-79972191D01*
X79202765Y-79831843D01*
X79157381Y-79822816D01*
X79175625Y-79810625D01*
X79503839Y-79319418D01*
X79619092Y-78740000D01*
X79503839Y-78160582D01*
X79175625Y-77669375D01*
X78877239Y-77470000D01*
X79175625Y-77270625D01*
X79503839Y-76779418D01*
X79619092Y-76200000D01*
X79503839Y-75620582D01*
X79175625Y-75129375D01*
X78684418Y-74801161D01*
X78251256Y-74715000D01*
X77958744Y-74715000D01*
X77525582Y-74801161D01*
X77034375Y-75129375D01*
X76706161Y-75620582D01*
X76590908Y-76200000D01*
X76706161Y-76779418D01*
X76927469Y-77110629D01*
X76442230Y-77595869D01*
X76378771Y-77638271D01*
X76210796Y-77889664D01*
X76166700Y-78111349D01*
X76166700Y-78111353D01*
X76151812Y-78186200D01*
X76166700Y-78261047D01*
X76166701Y-87036648D01*
X76151812Y-87111500D01*
X76210797Y-87408037D01*
X76295832Y-87535300D01*
X76378772Y-87659429D01*
X76442228Y-87701829D01*
X96395000Y-107654602D01*
X96395001Y-117967353D01*
X96031256Y-117895000D01*
X95738744Y-117895000D01*
X95305582Y-117981161D01*
X94814375Y-118309375D01*
X94615000Y-118607761D01*
X94415625Y-118309375D01*
X93924418Y-117981161D01*
X93491256Y-117895000D01*
X93198744Y-117895000D01*
X92765582Y-117981161D01*
X92274375Y-118309375D01*
X92075000Y-118607761D01*
X91875625Y-118309375D01*
X91384418Y-117981161D01*
X90951256Y-117895000D01*
X90658744Y-117895000D01*
X90225582Y-117981161D01*
X89734375Y-118309375D01*
X89535000Y-118607761D01*
X89335625Y-118309375D01*
X88844418Y-117981161D01*
X88411256Y-117895000D01*
X88118744Y-117895000D01*
X87685582Y-117981161D01*
X87194375Y-118309375D01*
X86995000Y-118607761D01*
X86795625Y-118309375D01*
X86304418Y-117981161D01*
X85871256Y-117895000D01*
X85578744Y-117895000D01*
X85145582Y-117981161D01*
X84654375Y-118309375D01*
X84455000Y-118607761D01*
X84255625Y-118309375D01*
X83764418Y-117981161D01*
X83331256Y-117895000D01*
X83038744Y-117895000D01*
X82605582Y-117981161D01*
X82114375Y-118309375D01*
X81915000Y-118607761D01*
X81715625Y-118309375D01*
X81224418Y-117981161D01*
X80791256Y-117895000D01*
X80498744Y-117895000D01*
X80065582Y-117981161D01*
X79574375Y-118309375D01*
X79562184Y-118327619D01*
X79553157Y-118282235D01*
X79412809Y-118072191D01*
X79202765Y-117931843D01*
X78955000Y-117882560D01*
X77255000Y-117882560D01*
X77007235Y-117931843D01*
X76797191Y-118072191D01*
X76656843Y-118282235D01*
X76607560Y-118530000D01*
X76607560Y-120230000D01*
X76656843Y-120477765D01*
X76797191Y-120687809D01*
X77007235Y-120828157D01*
X77052619Y-120837184D01*
X77034375Y-120849375D01*
X76706161Y-121340582D01*
X76590908Y-121920000D01*
X76706161Y-122499418D01*
X77034375Y-122990625D01*
X77332761Y-123190000D01*
X77034375Y-123389375D01*
X76706161Y-123880582D01*
X76590908Y-124460000D01*
X76706161Y-125039418D01*
X77034375Y-125530625D01*
X77525582Y-125858839D01*
X77958744Y-125945000D01*
X78251256Y-125945000D01*
X78684418Y-125858839D01*
X79175625Y-125530625D01*
X79503839Y-125039418D01*
X79619092Y-124460000D01*
X79503839Y-123880582D01*
X79175625Y-123389375D01*
X78877239Y-123190000D01*
X79175625Y-122990625D01*
X79503839Y-122499418D01*
X79619092Y-121920000D01*
X79503839Y-121340582D01*
X79175625Y-120849375D01*
X79157381Y-120837184D01*
X79202765Y-120828157D01*
X79412809Y-120687809D01*
X79553157Y-120477765D01*
X79562184Y-120432381D01*
X79574375Y-120450625D01*
X80065582Y-120778839D01*
X80498744Y-120865000D01*
X80791256Y-120865000D01*
X81224418Y-120778839D01*
X81715625Y-120450625D01*
X81915000Y-120152239D01*
X82114375Y-120450625D01*
X82605582Y-120778839D01*
X83038744Y-120865000D01*
X83331256Y-120865000D01*
X83764418Y-120778839D01*
X84255625Y-120450625D01*
X84455000Y-120152239D01*
X84654375Y-120450625D01*
X85145582Y-120778839D01*
X85578744Y-120865000D01*
X85871256Y-120865000D01*
X86304418Y-120778839D01*
X86795625Y-120450625D01*
X86995000Y-120152239D01*
X87194375Y-120450625D01*
X87685582Y-120778839D01*
X88118744Y-120865000D01*
X88411256Y-120865000D01*
X88844418Y-120778839D01*
X89175689Y-120557491D01*
X94747673Y-126129476D01*
X94790071Y-126192929D01*
X94853524Y-126235327D01*
X94853526Y-126235329D01*
X94978902Y-126319102D01*
X95041463Y-126360904D01*
X95263148Y-126405000D01*
X95263152Y-126405000D01*
X95337999Y-126419888D01*
X95412846Y-126405000D01*
X124252353Y-126405000D01*
X124327200Y-126419888D01*
X124402047Y-126405000D01*
X124402052Y-126405000D01*
X124623737Y-126360904D01*
X124875129Y-126192929D01*
X124917531Y-126129471D01*
X125427456Y-125619547D01*
X125785582Y-125858839D01*
X126218744Y-125945000D01*
X126511256Y-125945000D01*
X126944418Y-125858839D01*
X127435625Y-125530625D01*
X127763839Y-125039418D01*
X127879092Y-124460000D01*
X127763839Y-123880582D01*
X127536042Y-123539659D01*
X128170001Y-122905701D01*
X128170001Y-129520727D01*
X128152151Y-129861322D01*
X128101816Y-130179124D01*
X128018541Y-130489910D01*
X127903229Y-130790309D01*
X127757153Y-131076999D01*
X127581910Y-131346849D01*
X127379424Y-131596899D01*
X127151903Y-131824421D01*
X126901853Y-132026907D01*
X126631999Y-132202153D01*
X126345306Y-132348230D01*
X126044918Y-132463538D01*
X125734123Y-132546816D01*
X125416322Y-132597151D01*
X125056532Y-132616007D01*
X124980020Y-132624049D01*
X124904979Y-132640000D01*
X74485021Y-132640000D01*
X74409980Y-132624049D01*
X74333468Y-132616007D01*
X73973678Y-132597151D01*
X73655876Y-132546816D01*
X73345090Y-132463541D01*
X73044691Y-132348229D01*
X72758001Y-132202153D01*
X72488151Y-132026910D01*
X72238101Y-131824424D01*
X72010579Y-131596903D01*
X71808093Y-131346853D01*
X71632847Y-131076999D01*
X71486770Y-130790306D01*
X71371462Y-130489918D01*
X71288184Y-130179123D01*
X71237849Y-129861322D01*
X71218993Y-129501532D01*
X71210951Y-129425020D01*
X71195000Y-129349979D01*
X71195000Y-129191955D01*
X72301263Y-129191955D01*
X72310000Y-129563329D01*
X72310000Y-129934841D01*
X72319267Y-129957212D01*
X72319836Y-129981418D01*
X72586218Y-130624522D01*
X72597942Y-130629992D01*
X72612199Y-130664412D01*
X73170588Y-131222801D01*
X73205008Y-131237058D01*
X73210478Y-131248782D01*
X73556946Y-131382836D01*
X73900159Y-131525000D01*
X73924374Y-131525000D01*
X73946955Y-131533737D01*
X74318329Y-131525000D01*
X74689841Y-131525000D01*
X74712212Y-131515733D01*
X74736418Y-131515164D01*
X75379522Y-131248782D01*
X75384992Y-131237058D01*
X75419412Y-131222801D01*
X75977801Y-130664412D01*
X75992058Y-130629992D01*
X76003782Y-130624522D01*
X76137836Y-130278054D01*
X76280000Y-129934841D01*
X76280000Y-129910626D01*
X76288737Y-129888045D01*
X76280000Y-129516671D01*
X76280000Y-129191955D01*
X123101263Y-129191955D01*
X123110000Y-129563329D01*
X123110000Y-129934841D01*
X123119267Y-129957212D01*
X123119836Y-129981418D01*
X123386218Y-130624522D01*
X123397942Y-130629992D01*
X123412199Y-130664412D01*
X123970588Y-131222801D01*
X124005008Y-131237058D01*
X124010478Y-131248782D01*
X124356946Y-131382836D01*
X124700159Y-131525000D01*
X124724374Y-131525000D01*
X124746955Y-131533737D01*
X125118329Y-131525000D01*
X125489841Y-131525000D01*
X125512212Y-131515733D01*
X125536418Y-131515164D01*
X126179522Y-131248782D01*
X126184992Y-131237058D01*
X126219412Y-131222801D01*
X126777801Y-130664412D01*
X126792058Y-130629992D01*
X126803782Y-130624522D01*
X126937836Y-130278054D01*
X127080000Y-129934841D01*
X127080000Y-129910626D01*
X127088737Y-129888045D01*
X127080000Y-129516671D01*
X127080000Y-129145159D01*
X127070733Y-129122788D01*
X127070164Y-129098582D01*
X126803782Y-128455478D01*
X126792058Y-128450008D01*
X126777801Y-128415588D01*
X126219412Y-127857199D01*
X126184992Y-127842942D01*
X126179522Y-127831218D01*
X125833054Y-127697164D01*
X125489841Y-127555000D01*
X125465626Y-127555000D01*
X125443045Y-127546263D01*
X125071671Y-127555000D01*
X124700159Y-127555000D01*
X124677788Y-127564267D01*
X124653582Y-127564836D01*
X124010478Y-127831218D01*
X124005008Y-127842942D01*
X123970588Y-127857199D01*
X123412199Y-128415588D01*
X123397942Y-128450008D01*
X123386218Y-128455478D01*
X123252164Y-128801946D01*
X123110000Y-129145159D01*
X123110000Y-129169374D01*
X123101263Y-129191955D01*
X76280000Y-129191955D01*
X76280000Y-129145159D01*
X76270733Y-129122788D01*
X76270164Y-129098582D01*
X76003782Y-128455478D01*
X75992058Y-128450008D01*
X75977801Y-128415588D01*
X75419412Y-127857199D01*
X75384992Y-127842942D01*
X75379522Y-127831218D01*
X75033054Y-127697164D01*
X74689841Y-127555000D01*
X74665626Y-127555000D01*
X74643045Y-127546263D01*
X74271671Y-127555000D01*
X73900159Y-127555000D01*
X73877788Y-127564267D01*
X73853582Y-127564836D01*
X73210478Y-127831218D01*
X73205008Y-127842942D01*
X73170588Y-127857199D01*
X72612199Y-128415588D01*
X72597942Y-128450008D01*
X72586218Y-128455478D01*
X72452164Y-128801946D01*
X72310000Y-129145159D01*
X72310000Y-129169374D01*
X72301263Y-129191955D01*
X71195000Y-129191955D01*
X71195000Y-71310021D01*
X71210951Y-71234980D01*
X71218993Y-71158468D01*
X71237849Y-70798678D01*
X71242081Y-70771955D01*
X72301263Y-70771955D01*
X72310000Y-71143329D01*
X72310000Y-71514841D01*
X72319267Y-71537212D01*
X72319836Y-71561418D01*
X72586218Y-72204522D01*
X72597942Y-72209992D01*
X72612199Y-72244412D01*
X73170588Y-72802801D01*
X73205008Y-72817058D01*
X73210478Y-72828782D01*
X73556946Y-72962836D01*
X73900159Y-73105000D01*
X73924374Y-73105000D01*
X73946955Y-73113737D01*
X74318329Y-73105000D01*
X74689841Y-73105000D01*
X74712212Y-73095733D01*
X74736418Y-73095164D01*
X75379522Y-72828782D01*
X75384992Y-72817058D01*
X75419412Y-72802801D01*
X75977801Y-72244412D01*
X75992058Y-72209992D01*
X76003782Y-72204522D01*
X76137836Y-71858054D01*
X76280000Y-71514841D01*
X76280000Y-71490626D01*
X76288737Y-71468045D01*
X76280000Y-71096671D01*
X76280000Y-70771955D01*
X123101263Y-70771955D01*
X123110000Y-71143329D01*
X123110000Y-71514841D01*
X123119267Y-71537212D01*
X123119836Y-71561418D01*
X123386218Y-72204522D01*
X123397942Y-72209992D01*
X123412199Y-72244412D01*
X123970588Y-72802801D01*
X124005008Y-72817058D01*
X124010478Y-72828782D01*
X124356946Y-72962836D01*
X124700159Y-73105000D01*
X124724374Y-73105000D01*
X124746955Y-73113737D01*
X125118329Y-73105000D01*
X125489841Y-73105000D01*
X125512212Y-73095733D01*
X125536418Y-73095164D01*
X126179522Y-72828782D01*
X126184992Y-72817058D01*
X126219412Y-72802801D01*
X126777801Y-72244412D01*
X126792058Y-72209992D01*
X126803782Y-72204522D01*
X126937836Y-71858054D01*
X127080000Y-71514841D01*
X127080000Y-71490626D01*
X127088737Y-71468045D01*
X127080000Y-71096671D01*
X127080000Y-70725159D01*
X127070733Y-70702788D01*
X127070164Y-70678582D01*
X126803782Y-70035478D01*
X126792058Y-70030008D01*
X126777801Y-69995588D01*
X126219412Y-69437199D01*
X126184992Y-69422942D01*
X126179522Y-69411218D01*
X125833054Y-69277164D01*
X125489841Y-69135000D01*
X125465626Y-69135000D01*
X125443045Y-69126263D01*
X125071671Y-69135000D01*
X124700159Y-69135000D01*
X124677788Y-69144267D01*
X124653582Y-69144836D01*
X124010478Y-69411218D01*
X124005008Y-69422942D01*
X123970588Y-69437199D01*
X123412199Y-69995588D01*
X123397942Y-70030008D01*
X123386218Y-70035478D01*
X123252164Y-70381946D01*
X123110000Y-70725159D01*
X123110000Y-70749374D01*
X123101263Y-70771955D01*
X76280000Y-70771955D01*
X76280000Y-70725159D01*
X76270733Y-70702788D01*
X76270164Y-70678582D01*
X76003782Y-70035478D01*
X75992058Y-70030008D01*
X75977801Y-69995588D01*
X75419412Y-69437199D01*
X75384992Y-69422942D01*
X75379522Y-69411218D01*
X75033054Y-69277164D01*
X74689841Y-69135000D01*
X74665626Y-69135000D01*
X74643045Y-69126263D01*
X74271671Y-69135000D01*
X73900159Y-69135000D01*
X73877788Y-69144267D01*
X73853582Y-69144836D01*
X73210478Y-69411218D01*
X73205008Y-69422942D01*
X73170588Y-69437199D01*
X72612199Y-69995588D01*
X72597942Y-70030008D01*
X72586218Y-70035478D01*
X72452164Y-70381946D01*
X72310000Y-70725159D01*
X72310000Y-70749374D01*
X72301263Y-70771955D01*
X71242081Y-70771955D01*
X71288184Y-70480877D01*
X71371462Y-70170082D01*
X71486770Y-69869694D01*
X71632847Y-69583001D01*
X71808093Y-69313147D01*
X72010579Y-69063097D01*
X72238101Y-68835576D01*
X72488151Y-68633090D01*
X72758001Y-68457847D01*
X73044691Y-68311771D01*
X73345090Y-68196459D01*
X73655876Y-68113184D01*
X73973678Y-68062849D01*
X74333468Y-68043993D01*
X74409980Y-68035951D01*
X74485021Y-68020000D01*
X124904979Y-68020000D01*
X124980020Y-68035951D01*
X124980020Y-68035951D01*
G37*
X124980020Y-68035951D02*
X125056532Y-68043993D01*
X125416322Y-68062849D01*
X125734123Y-68113184D01*
X126044918Y-68196462D01*
X126345306Y-68311770D01*
X126631999Y-68457847D01*
X126901853Y-68633093D01*
X127151903Y-68835579D01*
X127379424Y-69063101D01*
X127581910Y-69313151D01*
X127757153Y-69583001D01*
X127903229Y-69869691D01*
X128018541Y-70170090D01*
X128101816Y-70480876D01*
X128152151Y-70798678D01*
X128170000Y-71139254D01*
X128170000Y-80278198D01*
X127542491Y-79650689D01*
X127763839Y-79319418D01*
X127879092Y-78740000D01*
X127763839Y-78160582D01*
X127435625Y-77669375D01*
X127137239Y-77470000D01*
X127435625Y-77270625D01*
X127763839Y-76779418D01*
X127879092Y-76200000D01*
X127763839Y-75620582D01*
X127435625Y-75129375D01*
X126944418Y-74801161D01*
X126511256Y-74715000D01*
X126218744Y-74715000D01*
X125785582Y-74801161D01*
X125294375Y-75129375D01*
X125282184Y-75147619D01*
X125273157Y-75102235D01*
X125132809Y-74892191D01*
X124922765Y-74751843D01*
X124675000Y-74702560D01*
X122975000Y-74702560D01*
X122727235Y-74751843D01*
X122517191Y-74892191D01*
X122376843Y-75102235D01*
X122327560Y-75350000D01*
X122327560Y-77050000D01*
X122376843Y-77297765D01*
X122517191Y-77507809D01*
X122727235Y-77648157D01*
X122772619Y-77657184D01*
X122754375Y-77669375D01*
X122426161Y-78160582D01*
X122310908Y-78740000D01*
X122426161Y-79319418D01*
X122754375Y-79810625D01*
X123052761Y-80010000D01*
X122754375Y-80209375D01*
X122426161Y-80700582D01*
X122310908Y-81280000D01*
X122426161Y-81859418D01*
X122659645Y-82208852D01*
X115768354Y-89100143D01*
X115631480Y-88963269D01*
X115251074Y-88805700D01*
X114839326Y-88805700D01*
X114458920Y-88963269D01*
X114167769Y-89254420D01*
X114010200Y-89634826D01*
X114010200Y-89800898D01*
X105560528Y-98250571D01*
X105497072Y-98292971D01*
X105454672Y-98356427D01*
X105454671Y-98356428D01*
X105329097Y-98544363D01*
X105270112Y-98840900D01*
X105285001Y-98915752D01*
X105285000Y-118101822D01*
X104974375Y-118309375D01*
X104775000Y-118607761D01*
X104575625Y-118309375D01*
X104084418Y-117981161D01*
X103651256Y-117895000D01*
X103358744Y-117895000D01*
X102925582Y-117981161D01*
X102434375Y-118309375D01*
X102235000Y-118607761D01*
X102035625Y-118309375D01*
X101544418Y-117981161D01*
X101111256Y-117895000D01*
X100818744Y-117895000D01*
X100521100Y-117954205D01*
X100521100Y-104186246D01*
X100535988Y-104111399D01*
X100521100Y-104036552D01*
X100521100Y-104036548D01*
X100477004Y-103814863D01*
X100370539Y-103655527D01*
X100351429Y-103626926D01*
X100351427Y-103626924D01*
X100309029Y-103563471D01*
X100245576Y-103521073D01*
X79352564Y-82628063D01*
X79412809Y-82587809D01*
X79553157Y-82377765D01*
X79562184Y-82332381D01*
X79574375Y-82350625D01*
X80065582Y-82678839D01*
X80498744Y-82765000D01*
X80791256Y-82765000D01*
X81224418Y-82678839D01*
X81715625Y-82350625D01*
X81915000Y-82052239D01*
X82114375Y-82350625D01*
X82605582Y-82678839D01*
X83038744Y-82765000D01*
X83331256Y-82765000D01*
X83764418Y-82678839D01*
X84255625Y-82350625D01*
X84455000Y-82052239D01*
X84654375Y-82350625D01*
X85145582Y-82678839D01*
X85578744Y-82765000D01*
X85871256Y-82765000D01*
X86304418Y-82678839D01*
X86795625Y-82350625D01*
X86995000Y-82052239D01*
X87194375Y-82350625D01*
X87685582Y-82678839D01*
X88118744Y-82765000D01*
X88411256Y-82765000D01*
X88844418Y-82678839D01*
X89175629Y-82457531D01*
X89657870Y-82939772D01*
X89700271Y-83003229D01*
X89951663Y-83171204D01*
X90173348Y-83215300D01*
X90173352Y-83215300D01*
X90248199Y-83230188D01*
X90323046Y-83215300D01*
X106526853Y-83215300D01*
X106601700Y-83230188D01*
X106676547Y-83215300D01*
X106676552Y-83215300D01*
X106898237Y-83171204D01*
X107149629Y-83003229D01*
X107192031Y-82939770D01*
X107674311Y-82457491D01*
X108005582Y-82678839D01*
X108438744Y-82765000D01*
X108731256Y-82765000D01*
X109164418Y-82678839D01*
X109655625Y-82350625D01*
X109855000Y-82052239D01*
X110054375Y-82350625D01*
X110545582Y-82678839D01*
X110978744Y-82765000D01*
X111271256Y-82765000D01*
X111704418Y-82678839D01*
X112195625Y-82350625D01*
X112395000Y-82052239D01*
X112594375Y-82350625D01*
X113085582Y-82678839D01*
X113518744Y-82765000D01*
X113811256Y-82765000D01*
X114244418Y-82678839D01*
X114735625Y-82350625D01*
X114935000Y-82052239D01*
X115134375Y-82350625D01*
X115625582Y-82678839D01*
X116058744Y-82765000D01*
X116351256Y-82765000D01*
X116784418Y-82678839D01*
X117275625Y-82350625D01*
X117287816Y-82332381D01*
X117296843Y-82377765D01*
X117437191Y-82587809D01*
X117647235Y-82728157D01*
X117895000Y-82777440D01*
X119595000Y-82777440D01*
X119842765Y-82728157D01*
X120052809Y-82587809D01*
X120193157Y-82377765D01*
X120242440Y-82130000D01*
X120242440Y-80430000D01*
X120193157Y-80182235D01*
X120052809Y-79972191D01*
X119842765Y-79831843D01*
X119595000Y-79782560D01*
X117895000Y-79782560D01*
X117647235Y-79831843D01*
X117597186Y-79865285D01*
X117352131Y-79620230D01*
X117309729Y-79556771D01*
X117058337Y-79388796D01*
X116836652Y-79344700D01*
X116836647Y-79344700D01*
X116761800Y-79329812D01*
X116686953Y-79344700D01*
X100483148Y-79344700D01*
X100408300Y-79329812D01*
X100333452Y-79344700D01*
X100333448Y-79344700D01*
X100111763Y-79388796D01*
X99860371Y-79556771D01*
X99817971Y-79620227D01*
X99335689Y-80102509D01*
X99004418Y-79881161D01*
X98571256Y-79795000D01*
X98278744Y-79795000D01*
X97845582Y-79881161D01*
X97354375Y-80209375D01*
X97155000Y-80507761D01*
X96955625Y-80209375D01*
X96464418Y-79881161D01*
X96031256Y-79795000D01*
X95738744Y-79795000D01*
X95305582Y-79881161D01*
X94814375Y-80209375D01*
X94615000Y-80507761D01*
X94415625Y-80209375D01*
X93924418Y-79881161D01*
X93491256Y-79795000D01*
X93198744Y-79795000D01*
X92765582Y-79881161D01*
X92274375Y-80209375D01*
X92075000Y-80507761D01*
X91875625Y-80209375D01*
X91384418Y-79881161D01*
X90951256Y-79795000D01*
X90658744Y-79795000D01*
X90225582Y-79881161D01*
X89734375Y-80209375D01*
X89535000Y-80507761D01*
X89335625Y-80209375D01*
X88844418Y-79881161D01*
X88411256Y-79795000D01*
X88118744Y-79795000D01*
X87685582Y-79881161D01*
X87194375Y-80209375D01*
X86995000Y-80507761D01*
X86795625Y-80209375D01*
X86304418Y-79881161D01*
X85871256Y-79795000D01*
X85578744Y-79795000D01*
X85145582Y-79881161D01*
X84654375Y-80209375D01*
X84455000Y-80507761D01*
X84255625Y-80209375D01*
X83764418Y-79881161D01*
X83331256Y-79795000D01*
X83038744Y-79795000D01*
X82605582Y-79881161D01*
X82114375Y-80209375D01*
X81915000Y-80507761D01*
X81715625Y-80209375D01*
X81224418Y-79881161D01*
X80791256Y-79795000D01*
X80498744Y-79795000D01*
X80065582Y-79881161D01*
X79574375Y-80209375D01*
X79562184Y-80227619D01*
X79553157Y-80182235D01*
X79412809Y-79972191D01*
X79202765Y-79831843D01*
X79157381Y-79822816D01*
X79175625Y-79810625D01*
X79503839Y-79319418D01*
X79619092Y-78740000D01*
X79503839Y-78160582D01*
X79175625Y-77669375D01*
X78877239Y-77470000D01*
X79175625Y-77270625D01*
X79503839Y-76779418D01*
X79619092Y-76200000D01*
X79503839Y-75620582D01*
X79175625Y-75129375D01*
X78684418Y-74801161D01*
X78251256Y-74715000D01*
X77958744Y-74715000D01*
X77525582Y-74801161D01*
X77034375Y-75129375D01*
X76706161Y-75620582D01*
X76590908Y-76200000D01*
X76706161Y-76779418D01*
X76927469Y-77110629D01*
X76442230Y-77595869D01*
X76378771Y-77638271D01*
X76210796Y-77889664D01*
X76166700Y-78111349D01*
X76166700Y-78111353D01*
X76151812Y-78186200D01*
X76166700Y-78261047D01*
X76166701Y-87036648D01*
X76151812Y-87111500D01*
X76210797Y-87408037D01*
X76295832Y-87535300D01*
X76378772Y-87659429D01*
X76442228Y-87701829D01*
X96395000Y-107654602D01*
X96395001Y-117967353D01*
X96031256Y-117895000D01*
X95738744Y-117895000D01*
X95305582Y-117981161D01*
X94814375Y-118309375D01*
X94615000Y-118607761D01*
X94415625Y-118309375D01*
X93924418Y-117981161D01*
X93491256Y-117895000D01*
X93198744Y-117895000D01*
X92765582Y-117981161D01*
X92274375Y-118309375D01*
X92075000Y-118607761D01*
X91875625Y-118309375D01*
X91384418Y-117981161D01*
X90951256Y-117895000D01*
X90658744Y-117895000D01*
X90225582Y-117981161D01*
X89734375Y-118309375D01*
X89535000Y-118607761D01*
X89335625Y-118309375D01*
X88844418Y-117981161D01*
X88411256Y-117895000D01*
X88118744Y-117895000D01*
X87685582Y-117981161D01*
X87194375Y-118309375D01*
X86995000Y-118607761D01*
X86795625Y-118309375D01*
X86304418Y-117981161D01*
X85871256Y-117895000D01*
X85578744Y-117895000D01*
X85145582Y-117981161D01*
X84654375Y-118309375D01*
X84455000Y-118607761D01*
X84255625Y-118309375D01*
X83764418Y-117981161D01*
X83331256Y-117895000D01*
X83038744Y-117895000D01*
X82605582Y-117981161D01*
X82114375Y-118309375D01*
X81915000Y-118607761D01*
X81715625Y-118309375D01*
X81224418Y-117981161D01*
X80791256Y-117895000D01*
X80498744Y-117895000D01*
X80065582Y-117981161D01*
X79574375Y-118309375D01*
X79562184Y-118327619D01*
X79553157Y-118282235D01*
X79412809Y-118072191D01*
X79202765Y-117931843D01*
X78955000Y-117882560D01*
X77255000Y-117882560D01*
X77007235Y-117931843D01*
X76797191Y-118072191D01*
X76656843Y-118282235D01*
X76607560Y-118530000D01*
X76607560Y-120230000D01*
X76656843Y-120477765D01*
X76797191Y-120687809D01*
X77007235Y-120828157D01*
X77052619Y-120837184D01*
X77034375Y-120849375D01*
X76706161Y-121340582D01*
X76590908Y-121920000D01*
X76706161Y-122499418D01*
X77034375Y-122990625D01*
X77332761Y-123190000D01*
X77034375Y-123389375D01*
X76706161Y-123880582D01*
X76590908Y-124460000D01*
X76706161Y-125039418D01*
X77034375Y-125530625D01*
X77525582Y-125858839D01*
X77958744Y-125945000D01*
X78251256Y-125945000D01*
X78684418Y-125858839D01*
X79175625Y-125530625D01*
X79503839Y-125039418D01*
X79619092Y-124460000D01*
X79503839Y-123880582D01*
X79175625Y-123389375D01*
X78877239Y-123190000D01*
X79175625Y-122990625D01*
X79503839Y-122499418D01*
X79619092Y-121920000D01*
X79503839Y-121340582D01*
X79175625Y-120849375D01*
X79157381Y-120837184D01*
X79202765Y-120828157D01*
X79412809Y-120687809D01*
X79553157Y-120477765D01*
X79562184Y-120432381D01*
X79574375Y-120450625D01*
X80065582Y-120778839D01*
X80498744Y-120865000D01*
X80791256Y-120865000D01*
X81224418Y-120778839D01*
X81715625Y-120450625D01*
X81915000Y-120152239D01*
X82114375Y-120450625D01*
X82605582Y-120778839D01*
X83038744Y-120865000D01*
X83331256Y-120865000D01*
X83764418Y-120778839D01*
X84255625Y-120450625D01*
X84455000Y-120152239D01*
X84654375Y-120450625D01*
X85145582Y-120778839D01*
X85578744Y-120865000D01*
X85871256Y-120865000D01*
X86304418Y-120778839D01*
X86795625Y-120450625D01*
X86995000Y-120152239D01*
X87194375Y-120450625D01*
X87685582Y-120778839D01*
X88118744Y-120865000D01*
X88411256Y-120865000D01*
X88844418Y-120778839D01*
X89175689Y-120557491D01*
X94747673Y-126129476D01*
X94790071Y-126192929D01*
X94853524Y-126235327D01*
X94853526Y-126235329D01*
X94978902Y-126319102D01*
X95041463Y-126360904D01*
X95263148Y-126405000D01*
X95263152Y-126405000D01*
X95337999Y-126419888D01*
X95412846Y-126405000D01*
X124252353Y-126405000D01*
X124327200Y-126419888D01*
X124402047Y-126405000D01*
X124402052Y-126405000D01*
X124623737Y-126360904D01*
X124875129Y-126192929D01*
X124917531Y-126129471D01*
X125427456Y-125619547D01*
X125785582Y-125858839D01*
X126218744Y-125945000D01*
X126511256Y-125945000D01*
X126944418Y-125858839D01*
X127435625Y-125530625D01*
X127763839Y-125039418D01*
X127879092Y-124460000D01*
X127763839Y-123880582D01*
X127536042Y-123539659D01*
X128170001Y-122905701D01*
X128170001Y-129520727D01*
X128152151Y-129861322D01*
X128101816Y-130179124D01*
X128018541Y-130489910D01*
X127903229Y-130790309D01*
X127757153Y-131076999D01*
X127581910Y-131346849D01*
X127379424Y-131596899D01*
X127151903Y-131824421D01*
X126901853Y-132026907D01*
X126631999Y-132202153D01*
X126345306Y-132348230D01*
X126044918Y-132463538D01*
X125734123Y-132546816D01*
X125416322Y-132597151D01*
X125056532Y-132616007D01*
X124980020Y-132624049D01*
X124904979Y-132640000D01*
X74485021Y-132640000D01*
X74409980Y-132624049D01*
X74333468Y-132616007D01*
X73973678Y-132597151D01*
X73655876Y-132546816D01*
X73345090Y-132463541D01*
X73044691Y-132348229D01*
X72758001Y-132202153D01*
X72488151Y-132026910D01*
X72238101Y-131824424D01*
X72010579Y-131596903D01*
X71808093Y-131346853D01*
X71632847Y-131076999D01*
X71486770Y-130790306D01*
X71371462Y-130489918D01*
X71288184Y-130179123D01*
X71237849Y-129861322D01*
X71218993Y-129501532D01*
X71210951Y-129425020D01*
X71195000Y-129349979D01*
X71195000Y-129191955D01*
X72301263Y-129191955D01*
X72310000Y-129563329D01*
X72310000Y-129934841D01*
X72319267Y-129957212D01*
X72319836Y-129981418D01*
X72586218Y-130624522D01*
X72597942Y-130629992D01*
X72612199Y-130664412D01*
X73170588Y-131222801D01*
X73205008Y-131237058D01*
X73210478Y-131248782D01*
X73556946Y-131382836D01*
X73900159Y-131525000D01*
X73924374Y-131525000D01*
X73946955Y-131533737D01*
X74318329Y-131525000D01*
X74689841Y-131525000D01*
X74712212Y-131515733D01*
X74736418Y-131515164D01*
X75379522Y-131248782D01*
X75384992Y-131237058D01*
X75419412Y-131222801D01*
X75977801Y-130664412D01*
X75992058Y-130629992D01*
X76003782Y-130624522D01*
X76137836Y-130278054D01*
X76280000Y-129934841D01*
X76280000Y-129910626D01*
X76288737Y-129888045D01*
X76280000Y-129516671D01*
X76280000Y-129191955D01*
X123101263Y-129191955D01*
X123110000Y-129563329D01*
X123110000Y-129934841D01*
X123119267Y-129957212D01*
X123119836Y-129981418D01*
X123386218Y-130624522D01*
X123397942Y-130629992D01*
X123412199Y-130664412D01*
X123970588Y-131222801D01*
X124005008Y-131237058D01*
X124010478Y-131248782D01*
X124356946Y-131382836D01*
X124700159Y-131525000D01*
X124724374Y-131525000D01*
X124746955Y-131533737D01*
X125118329Y-131525000D01*
X125489841Y-131525000D01*
X125512212Y-131515733D01*
X125536418Y-131515164D01*
X126179522Y-131248782D01*
X126184992Y-131237058D01*
X126219412Y-131222801D01*
X126777801Y-130664412D01*
X126792058Y-130629992D01*
X126803782Y-130624522D01*
X126937836Y-130278054D01*
X127080000Y-129934841D01*
X127080000Y-129910626D01*
X127088737Y-129888045D01*
X127080000Y-129516671D01*
X127080000Y-129145159D01*
X127070733Y-129122788D01*
X127070164Y-129098582D01*
X126803782Y-128455478D01*
X126792058Y-128450008D01*
X126777801Y-128415588D01*
X126219412Y-127857199D01*
X126184992Y-127842942D01*
X126179522Y-127831218D01*
X125833054Y-127697164D01*
X125489841Y-127555000D01*
X125465626Y-127555000D01*
X125443045Y-127546263D01*
X125071671Y-127555000D01*
X124700159Y-127555000D01*
X124677788Y-127564267D01*
X124653582Y-127564836D01*
X124010478Y-127831218D01*
X124005008Y-127842942D01*
X123970588Y-127857199D01*
X123412199Y-128415588D01*
X123397942Y-128450008D01*
X123386218Y-128455478D01*
X123252164Y-128801946D01*
X123110000Y-129145159D01*
X123110000Y-129169374D01*
X123101263Y-129191955D01*
X76280000Y-129191955D01*
X76280000Y-129145159D01*
X76270733Y-129122788D01*
X76270164Y-129098582D01*
X76003782Y-128455478D01*
X75992058Y-128450008D01*
X75977801Y-128415588D01*
X75419412Y-127857199D01*
X75384992Y-127842942D01*
X75379522Y-127831218D01*
X75033054Y-127697164D01*
X74689841Y-127555000D01*
X74665626Y-127555000D01*
X74643045Y-127546263D01*
X74271671Y-127555000D01*
X73900159Y-127555000D01*
X73877788Y-127564267D01*
X73853582Y-127564836D01*
X73210478Y-127831218D01*
X73205008Y-127842942D01*
X73170588Y-127857199D01*
X72612199Y-128415588D01*
X72597942Y-128450008D01*
X72586218Y-128455478D01*
X72452164Y-128801946D01*
X72310000Y-129145159D01*
X72310000Y-129169374D01*
X72301263Y-129191955D01*
X71195000Y-129191955D01*
X71195000Y-71310021D01*
X71210951Y-71234980D01*
X71218993Y-71158468D01*
X71237849Y-70798678D01*
X71242081Y-70771955D01*
X72301263Y-70771955D01*
X72310000Y-71143329D01*
X72310000Y-71514841D01*
X72319267Y-71537212D01*
X72319836Y-71561418D01*
X72586218Y-72204522D01*
X72597942Y-72209992D01*
X72612199Y-72244412D01*
X73170588Y-72802801D01*
X73205008Y-72817058D01*
X73210478Y-72828782D01*
X73556946Y-72962836D01*
X73900159Y-73105000D01*
X73924374Y-73105000D01*
X73946955Y-73113737D01*
X74318329Y-73105000D01*
X74689841Y-73105000D01*
X74712212Y-73095733D01*
X74736418Y-73095164D01*
X75379522Y-72828782D01*
X75384992Y-72817058D01*
X75419412Y-72802801D01*
X75977801Y-72244412D01*
X75992058Y-72209992D01*
X76003782Y-72204522D01*
X76137836Y-71858054D01*
X76280000Y-71514841D01*
X76280000Y-71490626D01*
X76288737Y-71468045D01*
X76280000Y-71096671D01*
X76280000Y-70771955D01*
X123101263Y-70771955D01*
X123110000Y-71143329D01*
X123110000Y-71514841D01*
X123119267Y-71537212D01*
X123119836Y-71561418D01*
X123386218Y-72204522D01*
X123397942Y-72209992D01*
X123412199Y-72244412D01*
X123970588Y-72802801D01*
X124005008Y-72817058D01*
X124010478Y-72828782D01*
X124356946Y-72962836D01*
X124700159Y-73105000D01*
X124724374Y-73105000D01*
X124746955Y-73113737D01*
X125118329Y-73105000D01*
X125489841Y-73105000D01*
X125512212Y-73095733D01*
X125536418Y-73095164D01*
X126179522Y-72828782D01*
X126184992Y-72817058D01*
X126219412Y-72802801D01*
X126777801Y-72244412D01*
X126792058Y-72209992D01*
X126803782Y-72204522D01*
X126937836Y-71858054D01*
X127080000Y-71514841D01*
X127080000Y-71490626D01*
X127088737Y-71468045D01*
X127080000Y-71096671D01*
X127080000Y-70725159D01*
X127070733Y-70702788D01*
X127070164Y-70678582D01*
X126803782Y-70035478D01*
X126792058Y-70030008D01*
X126777801Y-69995588D01*
X126219412Y-69437199D01*
X126184992Y-69422942D01*
X126179522Y-69411218D01*
X125833054Y-69277164D01*
X125489841Y-69135000D01*
X125465626Y-69135000D01*
X125443045Y-69126263D01*
X125071671Y-69135000D01*
X124700159Y-69135000D01*
X124677788Y-69144267D01*
X124653582Y-69144836D01*
X124010478Y-69411218D01*
X124005008Y-69422942D01*
X123970588Y-69437199D01*
X123412199Y-69995588D01*
X123397942Y-70030008D01*
X123386218Y-70035478D01*
X123252164Y-70381946D01*
X123110000Y-70725159D01*
X123110000Y-70749374D01*
X123101263Y-70771955D01*
X76280000Y-70771955D01*
X76280000Y-70725159D01*
X76270733Y-70702788D01*
X76270164Y-70678582D01*
X76003782Y-70035478D01*
X75992058Y-70030008D01*
X75977801Y-69995588D01*
X75419412Y-69437199D01*
X75384992Y-69422942D01*
X75379522Y-69411218D01*
X75033054Y-69277164D01*
X74689841Y-69135000D01*
X74665626Y-69135000D01*
X74643045Y-69126263D01*
X74271671Y-69135000D01*
X73900159Y-69135000D01*
X73877788Y-69144267D01*
X73853582Y-69144836D01*
X73210478Y-69411218D01*
X73205008Y-69422942D01*
X73170588Y-69437199D01*
X72612199Y-69995588D01*
X72597942Y-70030008D01*
X72586218Y-70035478D01*
X72452164Y-70381946D01*
X72310000Y-70725159D01*
X72310000Y-70749374D01*
X72301263Y-70771955D01*
X71242081Y-70771955D01*
X71288184Y-70480877D01*
X71371462Y-70170082D01*
X71486770Y-69869694D01*
X71632847Y-69583001D01*
X71808093Y-69313147D01*
X72010579Y-69063097D01*
X72238101Y-68835576D01*
X72488151Y-68633090D01*
X72758001Y-68457847D01*
X73044691Y-68311771D01*
X73345090Y-68196459D01*
X73655876Y-68113184D01*
X73973678Y-68062849D01*
X74333468Y-68043993D01*
X74409980Y-68035951D01*
X74485021Y-68020000D01*
X124904979Y-68020000D01*
X124980020Y-68035951D01*
G36*
X94814375Y-120450625D02*
X95305582Y-120778839D01*
X95738744Y-120865000D01*
X96031256Y-120865000D01*
X96464418Y-120778839D01*
X96822725Y-120539426D01*
X98744471Y-122461173D01*
X98786871Y-122524629D01*
X98850327Y-122567029D01*
X99038262Y-122692604D01*
X99086405Y-122702180D01*
X99259948Y-122736700D01*
X99259952Y-122736700D01*
X99334800Y-122751588D01*
X99409648Y-122736700D01*
X122518153Y-122736700D01*
X122593000Y-122751588D01*
X122594461Y-122751297D01*
X122754375Y-122990625D01*
X123052761Y-123190000D01*
X122754375Y-123389375D01*
X122426161Y-123880582D01*
X122310908Y-124460000D01*
X122395445Y-124885000D01*
X95652803Y-124885000D01*
X91481663Y-120713862D01*
X91875625Y-120450625D01*
X92075000Y-120152239D01*
X92274375Y-120450625D01*
X92765582Y-120778839D01*
X93198744Y-120865000D01*
X93491256Y-120865000D01*
X93924418Y-120778839D01*
X94415625Y-120450625D01*
X94615000Y-120152239D01*
X94814375Y-120450625D01*
X94814375Y-120450625D01*
G37*
X94814375Y-120450625D02*
X95305582Y-120778839D01*
X95738744Y-120865000D01*
X96031256Y-120865000D01*
X96464418Y-120778839D01*
X96822725Y-120539426D01*
X98744471Y-122461173D01*
X98786871Y-122524629D01*
X98850327Y-122567029D01*
X99038262Y-122692604D01*
X99086405Y-122702180D01*
X99259948Y-122736700D01*
X99259952Y-122736700D01*
X99334800Y-122751588D01*
X99409648Y-122736700D01*
X122518153Y-122736700D01*
X122593000Y-122751588D01*
X122594461Y-122751297D01*
X122754375Y-122990625D01*
X123052761Y-123190000D01*
X122754375Y-123389375D01*
X122426161Y-123880582D01*
X122310908Y-124460000D01*
X122395445Y-124885000D01*
X95652803Y-124885000D01*
X91481663Y-120713862D01*
X91875625Y-120450625D01*
X92075000Y-120152239D01*
X92274375Y-120450625D01*
X92765582Y-120778839D01*
X93198744Y-120865000D01*
X93491256Y-120865000D01*
X93924418Y-120778839D01*
X94415625Y-120450625D01*
X94615000Y-120152239D01*
X94814375Y-120450625D01*
G36*
X122426161Y-119959418D02*
X122754375Y-120450625D01*
X123052761Y-120650000D01*
X122754375Y-120849375D01*
X122542526Y-121166429D01*
X122353163Y-121204096D01*
X122334300Y-121216700D01*
X120523101Y-121216700D01*
X122319020Y-119420782D01*
X122426161Y-119959418D01*
X122426161Y-119959418D01*
G37*
X122426161Y-119959418D02*
X122754375Y-120450625D01*
X123052761Y-120650000D01*
X122754375Y-120849375D01*
X122542526Y-121166429D01*
X122353163Y-121204096D01*
X122334300Y-121216700D01*
X120523101Y-121216700D01*
X122319020Y-119420782D01*
X122426161Y-119959418D01*
G36*
X100051398Y-121216700D02*
X99649602Y-121216700D01*
X99128699Y-120695797D01*
X99369559Y-120534860D01*
X100051398Y-121216700D01*
X100051398Y-121216700D01*
G37*
X100051398Y-121216700D02*
X99649602Y-121216700D01*
X99128699Y-120695797D01*
X99369559Y-120534860D01*
X100051398Y-121216700D01*
G36*
X127240900Y-120719264D02*
X127137239Y-120650000D01*
X127240900Y-120580736D01*
X127240900Y-120719264D01*
X127240900Y-120719264D01*
G37*
X127240900Y-120719264D02*
X127137239Y-120650000D01*
X127240900Y-120580736D01*
X127240900Y-120719264D01*
G36*
X117296843Y-120477765D02*
X117437191Y-120687809D01*
X117475341Y-120713300D01*
X116882504Y-120713300D01*
X117275625Y-120450625D01*
X117287816Y-120432381D01*
X117296843Y-120477765D01*
X117296843Y-120477765D01*
G37*
X117296843Y-120477765D02*
X117437191Y-120687809D01*
X117475341Y-120713300D01*
X116882504Y-120713300D01*
X117275625Y-120450625D01*
X117287816Y-120432381D01*
X117296843Y-120477765D01*
G36*
X115527496Y-120713300D02*
X115075702Y-120713300D01*
X115256665Y-120532337D01*
X115527496Y-120713300D01*
X115527496Y-120713300D01*
G37*
X115527496Y-120713300D02*
X115075702Y-120713300D01*
X115256665Y-120532337D01*
X115527496Y-120713300D01*
G36*
X102031499Y-120713300D02*
X101697602Y-120713300D01*
X101675533Y-120691231D01*
X101875689Y-120557491D01*
X102031499Y-120713300D01*
X102031499Y-120713300D01*
G37*
X102031499Y-120713300D02*
X101697602Y-120713300D01*
X101675533Y-120691231D01*
X101875689Y-120557491D01*
X102031499Y-120713300D01*
G36*
X107825000Y-118101822D02*
X107514375Y-118309375D01*
X107315000Y-118607761D01*
X107115625Y-118309375D01*
X106805000Y-118101822D01*
X106805000Y-99155701D01*
X107825001Y-98135700D01*
X107825000Y-118101822D01*
X107825000Y-118101822D01*
G37*
X107825000Y-118101822D02*
X107514375Y-118309375D01*
X107315000Y-118607761D01*
X107115625Y-118309375D01*
X106805000Y-118101822D01*
X106805000Y-99155701D01*
X107825001Y-98135700D01*
X107825000Y-118101822D01*
G36*
X122674626Y-84771272D02*
X110640530Y-96805369D01*
X110577071Y-96847771D01*
X110409096Y-97099164D01*
X110365000Y-97320849D01*
X110365000Y-97320853D01*
X110350112Y-97395700D01*
X110365000Y-97470547D01*
X110365001Y-118101821D01*
X110054375Y-118309375D01*
X109855000Y-118607761D01*
X109655625Y-118309375D01*
X109345000Y-118101822D01*
X109345000Y-97673101D01*
X122503275Y-84514828D01*
X122674626Y-84771272D01*
X122674626Y-84771272D01*
G37*
X122674626Y-84771272D02*
X110640530Y-96805369D01*
X110577071Y-96847771D01*
X110409096Y-97099164D01*
X110365000Y-97320849D01*
X110365000Y-97320853D01*
X110350112Y-97395700D01*
X110365000Y-97470547D01*
X110365001Y-118101821D01*
X110054375Y-118309375D01*
X109855000Y-118607761D01*
X109655625Y-118309375D01*
X109345000Y-118101822D01*
X109345000Y-97673101D01*
X122503275Y-84514828D01*
X122674626Y-84771272D01*
G36*
X111913720Y-108877431D02*
X112294126Y-109035000D01*
X112460198Y-109035000D01*
X113240001Y-109814804D01*
X113240000Y-115296289D01*
X113122569Y-115413720D01*
X112965000Y-115794126D01*
X112965000Y-116205874D01*
X113122569Y-116586280D01*
X113413720Y-116877431D01*
X113794126Y-117035000D01*
X114124800Y-117035000D01*
X114124800Y-117957368D01*
X113811256Y-117895000D01*
X113518744Y-117895000D01*
X113085582Y-117981161D01*
X112594375Y-118309375D01*
X112395000Y-118607761D01*
X112195625Y-118309375D01*
X111885000Y-118101822D01*
X111885000Y-108848711D01*
X111913720Y-108877431D01*
X111913720Y-108877431D01*
G37*
X111913720Y-108877431D02*
X112294126Y-109035000D01*
X112460198Y-109035000D01*
X113240001Y-109814804D01*
X113240000Y-115296289D01*
X113122569Y-115413720D01*
X112965000Y-115794126D01*
X112965000Y-116205874D01*
X113122569Y-116586280D01*
X113413720Y-116877431D01*
X113794126Y-117035000D01*
X114124800Y-117035000D01*
X114124800Y-117957368D01*
X113811256Y-117895000D01*
X113518744Y-117895000D01*
X113085582Y-117981161D01*
X112594375Y-118309375D01*
X112395000Y-118607761D01*
X112195625Y-118309375D01*
X111885000Y-118101822D01*
X111885000Y-108848711D01*
X111913720Y-108877431D01*
G36*
X122059371Y-114784473D02*
X122101771Y-114847929D01*
X122353163Y-115015904D01*
X122542526Y-115053571D01*
X122647509Y-115210689D01*
X119892874Y-117965325D01*
X119842765Y-117931843D01*
X119595000Y-117882560D01*
X117895000Y-117882560D01*
X117647235Y-117931843D01*
X117437191Y-118072191D01*
X117296843Y-118282235D01*
X117287816Y-118327619D01*
X117275625Y-118309375D01*
X116784418Y-117981161D01*
X116351256Y-117895000D01*
X116058744Y-117895000D01*
X115644800Y-117977338D01*
X115644800Y-108545746D01*
X115659688Y-108470899D01*
X115644800Y-108396052D01*
X115644800Y-108396048D01*
X115638308Y-108363409D01*
X122059371Y-114784473D01*
X122059371Y-114784473D01*
G37*
X122059371Y-114784473D02*
X122101771Y-114847929D01*
X122353163Y-115015904D01*
X122542526Y-115053571D01*
X122647509Y-115210689D01*
X119892874Y-117965325D01*
X119842765Y-117931843D01*
X119595000Y-117882560D01*
X117895000Y-117882560D01*
X117647235Y-117931843D01*
X117437191Y-118072191D01*
X117296843Y-118282235D01*
X117287816Y-118327619D01*
X117275625Y-118309375D01*
X116784418Y-117981161D01*
X116351256Y-117895000D01*
X116058744Y-117895000D01*
X115644800Y-117977338D01*
X115644800Y-108545746D01*
X115659688Y-108470899D01*
X115644800Y-108396052D01*
X115644800Y-108396048D01*
X115638308Y-108363409D01*
X122059371Y-114784473D01*
G36*
X125187469Y-117750629D02*
X124735629Y-118202469D01*
X124597239Y-118110000D01*
X124895625Y-117910625D01*
X125095000Y-117612239D01*
X125187469Y-117750629D01*
X125187469Y-117750629D01*
G37*
X125187469Y-117750629D02*
X124735629Y-118202469D01*
X124597239Y-118110000D01*
X124895625Y-117910625D01*
X125095000Y-117612239D01*
X125187469Y-117750629D01*
G36*
X127240900Y-118179264D02*
X127137239Y-118110000D01*
X127240900Y-118040736D01*
X127240900Y-118179264D01*
X127240900Y-118179264D01*
G37*
X127240900Y-118179264D02*
X127137239Y-118110000D01*
X127240900Y-118040736D01*
X127240900Y-118179264D01*
G36*
X99001101Y-104426204D02*
X99001100Y-117980501D01*
X98571256Y-117895000D01*
X98278744Y-117895000D01*
X97915000Y-117967353D01*
X97915000Y-107414646D01*
X97929888Y-107339799D01*
X97915000Y-107264952D01*
X97915000Y-107264948D01*
X97870904Y-107043263D01*
X97702929Y-106791871D01*
X97639473Y-106749471D01*
X77686700Y-86796699D01*
X77686700Y-83111801D01*
X99001101Y-104426204D01*
X99001101Y-104426204D01*
G37*
X99001101Y-104426204D02*
X99001100Y-117980501D01*
X98571256Y-117895000D01*
X98278744Y-117895000D01*
X97915000Y-117967353D01*
X97915000Y-107414646D01*
X97929888Y-107339799D01*
X97915000Y-107264952D01*
X97915000Y-107264948D01*
X97870904Y-107043263D01*
X97702929Y-106791871D01*
X97639473Y-106749471D01*
X77686700Y-86796699D01*
X77686700Y-83111801D01*
X99001101Y-104426204D01*
G36*
X125592761Y-115570000D02*
X125294375Y-115769375D01*
X125095000Y-116067761D01*
X124982183Y-115898918D01*
X125423918Y-115457183D01*
X125592761Y-115570000D01*
X125592761Y-115570000D01*
G37*
X125592761Y-115570000D02*
X125294375Y-115769375D01*
X125095000Y-116067761D01*
X124982183Y-115898918D01*
X125423918Y-115457183D01*
X125592761Y-115570000D01*
G36*
X122059371Y-112244473D02*
X122101771Y-112307929D01*
X122353163Y-112475904D01*
X122542526Y-112513571D01*
X122754375Y-112830625D01*
X123052761Y-113030000D01*
X122754375Y-113229375D01*
X122714121Y-113289619D01*
X115892900Y-106468399D01*
X115892900Y-106302326D01*
X115841527Y-106178300D01*
X115993199Y-106178300D01*
X122059371Y-112244473D01*
X122059371Y-112244473D01*
G37*
X122059371Y-112244473D02*
X122101771Y-112307929D01*
X122353163Y-112475904D01*
X122542526Y-112513571D01*
X122754375Y-112830625D01*
X123052761Y-113030000D01*
X122754375Y-113229375D01*
X122714121Y-113289619D01*
X115892900Y-106468399D01*
X115892900Y-106302326D01*
X115841527Y-106178300D01*
X115993199Y-106178300D01*
X122059371Y-112244473D01*
G36*
X115130920Y-103164931D02*
X115511326Y-103322500D01*
X115677399Y-103322500D01*
X122059371Y-109704473D01*
X122101771Y-109767929D01*
X122353163Y-109935904D01*
X122542526Y-109973571D01*
X122754375Y-110290625D01*
X123052761Y-110490000D01*
X122754375Y-110689375D01*
X122714121Y-110749619D01*
X117068000Y-105103499D01*
X117068000Y-104937426D01*
X116910431Y-104557020D01*
X116619280Y-104265869D01*
X116238874Y-104108300D01*
X115827126Y-104108300D01*
X115446720Y-104265869D01*
X115155569Y-104557020D01*
X114998000Y-104937426D01*
X114998000Y-105349174D01*
X115049373Y-105473200D01*
X114891200Y-105473200D01*
X114891200Y-102925211D01*
X115130920Y-103164931D01*
X115130920Y-103164931D01*
G37*
X115130920Y-103164931D02*
X115511326Y-103322500D01*
X115677399Y-103322500D01*
X122059371Y-109704473D01*
X122101771Y-109767929D01*
X122353163Y-109935904D01*
X122542526Y-109973571D01*
X122754375Y-110290625D01*
X123052761Y-110490000D01*
X122754375Y-110689375D01*
X122714121Y-110749619D01*
X117068000Y-105103499D01*
X117068000Y-104937426D01*
X116910431Y-104557020D01*
X116619280Y-104265869D01*
X116238874Y-104108300D01*
X115827126Y-104108300D01*
X115446720Y-104265869D01*
X115155569Y-104557020D01*
X114998000Y-104937426D01*
X114998000Y-105349174D01*
X115049373Y-105473200D01*
X114891200Y-105473200D01*
X114891200Y-102925211D01*
X115130920Y-103164931D01*
G36*
X125199926Y-110149272D02*
X124754273Y-110594926D01*
X124597239Y-110490000D01*
X124895625Y-110290625D01*
X125095000Y-109992239D01*
X125199926Y-110149272D01*
X125199926Y-110149272D01*
G37*
X125199926Y-110149272D02*
X124754273Y-110594926D01*
X124597239Y-110490000D01*
X124895625Y-110290625D01*
X125095000Y-109992239D01*
X125199926Y-110149272D01*
G36*
X125294375Y-107750625D02*
X125592761Y-107950000D01*
X125294375Y-108149375D01*
X125095000Y-108447761D01*
X124895625Y-108149375D01*
X124597239Y-107950000D01*
X124895625Y-107750625D01*
X125095000Y-107452239D01*
X125294375Y-107750625D01*
X125294375Y-107750625D01*
G37*
X125294375Y-107750625D02*
X125592761Y-107950000D01*
X125294375Y-108149375D01*
X125095000Y-108447761D01*
X124895625Y-108149375D01*
X124597239Y-107950000D01*
X124895625Y-107750625D01*
X125095000Y-107452239D01*
X125294375Y-107750625D01*
G36*
X116658320Y-99612331D02*
X117038726Y-99769900D01*
X117204799Y-99769900D01*
X122059371Y-104624473D01*
X122101771Y-104687929D01*
X122165227Y-104730329D01*
X122353162Y-104855904D01*
X122401305Y-104865480D01*
X122542526Y-104893571D01*
X122754375Y-105210625D01*
X123052761Y-105410000D01*
X122754375Y-105609375D01*
X122426161Y-106100582D01*
X122310908Y-106680000D01*
X122426161Y-107259418D01*
X122754375Y-107750625D01*
X123052761Y-107950000D01*
X122754375Y-108149375D01*
X122714121Y-108209619D01*
X116752200Y-102247699D01*
X116752200Y-102081626D01*
X116594631Y-101701220D01*
X116303480Y-101410069D01*
X115923074Y-101252500D01*
X115511326Y-101252500D01*
X115130920Y-101410069D01*
X114891200Y-101649789D01*
X114891200Y-101077801D01*
X116507495Y-99461506D01*
X116658320Y-99612331D01*
X116658320Y-99612331D01*
G37*
X116658320Y-99612331D02*
X117038726Y-99769900D01*
X117204799Y-99769900D01*
X122059371Y-104624473D01*
X122101771Y-104687929D01*
X122165227Y-104730329D01*
X122353162Y-104855904D01*
X122401305Y-104865480D01*
X122542526Y-104893571D01*
X122754375Y-105210625D01*
X123052761Y-105410000D01*
X122754375Y-105609375D01*
X122426161Y-106100582D01*
X122310908Y-106680000D01*
X122426161Y-107259418D01*
X122754375Y-107750625D01*
X123052761Y-107950000D01*
X122754375Y-108149375D01*
X122714121Y-108209619D01*
X116752200Y-102247699D01*
X116752200Y-102081626D01*
X116594631Y-101701220D01*
X116303480Y-101410069D01*
X115923074Y-101252500D01*
X115511326Y-101252500D01*
X115130920Y-101410069D01*
X114891200Y-101649789D01*
X114891200Y-101077801D01*
X116507495Y-99461506D01*
X116658320Y-99612331D01*
G36*
X127241900Y-108019932D02*
X127137239Y-107950000D01*
X127241900Y-107880068D01*
X127241900Y-108019932D01*
X127241900Y-108019932D01*
G37*
X127241900Y-108019932D02*
X127137239Y-107950000D01*
X127241900Y-107880068D01*
X127241900Y-108019932D01*
G36*
X122754375Y-87430625D02*
X123052761Y-87630000D01*
X122754375Y-87829375D01*
X122426161Y-88320582D01*
X122310908Y-88900000D01*
X122426161Y-89479418D01*
X122754375Y-89970625D01*
X123052761Y-90170000D01*
X122754375Y-90369375D01*
X122426161Y-90860582D01*
X122310908Y-91440000D01*
X122426161Y-92019418D01*
X122754375Y-92510625D01*
X123052761Y-92710000D01*
X122754375Y-92909375D01*
X122426161Y-93400582D01*
X122310908Y-93980000D01*
X122393516Y-94395300D01*
X119813746Y-94395300D01*
X119738899Y-94380412D01*
X119664052Y-94395300D01*
X119664048Y-94395300D01*
X119442363Y-94439396D01*
X119442361Y-94439397D01*
X119442362Y-94439397D01*
X119254426Y-94564971D01*
X119254424Y-94564973D01*
X119190971Y-94607371D01*
X119148573Y-94670824D01*
X113646728Y-100172671D01*
X113583272Y-100215071D01*
X113540872Y-100278527D01*
X113540871Y-100278528D01*
X113415297Y-100466463D01*
X113356312Y-100763000D01*
X113371201Y-100837852D01*
X113371200Y-107407489D01*
X113086280Y-107122569D01*
X112705874Y-106965000D01*
X112294126Y-106965000D01*
X111913720Y-107122569D01*
X111885000Y-107151289D01*
X111885000Y-97710501D01*
X122518255Y-87077247D01*
X122754375Y-87430625D01*
X122754375Y-87430625D01*
G37*
X122754375Y-87430625D02*
X123052761Y-87630000D01*
X122754375Y-87829375D01*
X122426161Y-88320582D01*
X122310908Y-88900000D01*
X122426161Y-89479418D01*
X122754375Y-89970625D01*
X123052761Y-90170000D01*
X122754375Y-90369375D01*
X122426161Y-90860582D01*
X122310908Y-91440000D01*
X122426161Y-92019418D01*
X122754375Y-92510625D01*
X123052761Y-92710000D01*
X122754375Y-92909375D01*
X122426161Y-93400582D01*
X122310908Y-93980000D01*
X122393516Y-94395300D01*
X119813746Y-94395300D01*
X119738899Y-94380412D01*
X119664052Y-94395300D01*
X119664048Y-94395300D01*
X119442363Y-94439396D01*
X119442361Y-94439397D01*
X119442362Y-94439397D01*
X119254426Y-94564971D01*
X119254424Y-94564973D01*
X119190971Y-94607371D01*
X119148573Y-94670824D01*
X113646728Y-100172671D01*
X113583272Y-100215071D01*
X113540872Y-100278527D01*
X113540871Y-100278528D01*
X113415297Y-100466463D01*
X113356312Y-100763000D01*
X113371201Y-100837852D01*
X113371200Y-107407489D01*
X113086280Y-107122569D01*
X112705874Y-106965000D01*
X112294126Y-106965000D01*
X111913720Y-107122569D01*
X111885000Y-107151289D01*
X111885000Y-97710501D01*
X122518255Y-87077247D01*
X122754375Y-87430625D01*
G36*
X125592761Y-105410000D02*
X125294375Y-105609375D01*
X125095000Y-105907761D01*
X125002531Y-105769371D01*
X125454371Y-105317531D01*
X125592761Y-105410000D01*
X125592761Y-105410000D01*
G37*
X125592761Y-105410000D02*
X125294375Y-105609375D01*
X125095000Y-105907761D01*
X125002531Y-105769371D01*
X125454371Y-105317531D01*
X125592761Y-105410000D01*
G36*
X127241900Y-105479932D02*
X127137239Y-105410000D01*
X127241900Y-105340068D01*
X127241900Y-105479932D01*
X127241900Y-105479932D01*
G37*
X127241900Y-105479932D02*
X127137239Y-105410000D01*
X127241900Y-105340068D01*
X127241900Y-105479932D01*
G36*
X118299226Y-98486500D02*
X118465299Y-98486500D01*
X122051518Y-102072720D01*
X122101771Y-102147929D01*
X122353163Y-102315904D01*
X122542526Y-102353571D01*
X122754375Y-102670625D01*
X123052761Y-102870000D01*
X122754375Y-103069375D01*
X122714121Y-103129619D01*
X118279600Y-98695099D01*
X118279600Y-98529026D01*
X118254272Y-98467880D01*
X118299226Y-98486500D01*
X118299226Y-98486500D01*
G37*
X118299226Y-98486500D02*
X118465299Y-98486500D01*
X122051518Y-102072720D01*
X122101771Y-102147929D01*
X122353163Y-102315904D01*
X122542526Y-102353571D01*
X122754375Y-102670625D01*
X123052761Y-102870000D01*
X122754375Y-103069375D01*
X122714121Y-103129619D01*
X118279600Y-98695099D01*
X118279600Y-98529026D01*
X118254272Y-98467880D01*
X118299226Y-98486500D01*
G36*
X127241900Y-102939932D02*
X127137239Y-102870000D01*
X127241900Y-102800068D01*
X127241900Y-102939932D01*
X127241900Y-102939932D01*
G37*
X127241900Y-102939932D02*
X127137239Y-102870000D01*
X127241900Y-102800068D01*
X127241900Y-102939932D01*
G36*
X122426161Y-95940582D02*
X122310908Y-96520000D01*
X122426161Y-97099418D01*
X122754375Y-97590625D01*
X123052761Y-97790000D01*
X122754375Y-97989375D01*
X122426161Y-98480582D01*
X122310908Y-99060000D01*
X122426161Y-99639418D01*
X122754375Y-100130625D01*
X123052761Y-100330000D01*
X122754375Y-100529375D01*
X122715683Y-100587281D01*
X119540100Y-97411699D01*
X119540100Y-97245626D01*
X119382531Y-96865220D01*
X119243157Y-96725846D01*
X120053703Y-95915300D01*
X122443054Y-95915300D01*
X122426161Y-95940582D01*
X122426161Y-95940582D01*
G37*
X122426161Y-95940582D02*
X122310908Y-96520000D01*
X122426161Y-97099418D01*
X122754375Y-97590625D01*
X123052761Y-97790000D01*
X122754375Y-97989375D01*
X122426161Y-98480582D01*
X122310908Y-99060000D01*
X122426161Y-99639418D01*
X122754375Y-100130625D01*
X123052761Y-100330000D01*
X122754375Y-100529375D01*
X122715683Y-100587281D01*
X119540100Y-97411699D01*
X119540100Y-97245626D01*
X119382531Y-96865220D01*
X119243157Y-96725846D01*
X120053703Y-95915300D01*
X122443054Y-95915300D01*
X122426161Y-95940582D01*
G36*
X125187469Y-99970629D02*
X124735629Y-100422469D01*
X124597239Y-100330000D01*
X124895625Y-100130625D01*
X125095000Y-99832239D01*
X125187469Y-99970629D01*
X125187469Y-99970629D01*
G37*
X125187469Y-99970629D02*
X124735629Y-100422469D01*
X124597239Y-100330000D01*
X124895625Y-100130625D01*
X125095000Y-99832239D01*
X125187469Y-99970629D01*
G36*
X127241900Y-100399932D02*
X127137239Y-100330000D01*
X127241900Y-100260068D01*
X127241900Y-100399932D01*
X127241900Y-100399932D01*
G37*
X127241900Y-100399932D02*
X127137239Y-100330000D01*
X127241900Y-100260068D01*
X127241900Y-100399932D01*
G36*
X125294375Y-97590625D02*
X125592761Y-97790000D01*
X125294375Y-97989375D01*
X125095000Y-98287761D01*
X124895625Y-97989375D01*
X124597239Y-97790000D01*
X124895625Y-97590625D01*
X125095000Y-97292239D01*
X125294375Y-97590625D01*
X125294375Y-97590625D01*
G37*
X125294375Y-97590625D02*
X125592761Y-97790000D01*
X125294375Y-97989375D01*
X125095000Y-98287761D01*
X124895625Y-97989375D01*
X124597239Y-97790000D01*
X124895625Y-97590625D01*
X125095000Y-97292239D01*
X125294375Y-97590625D01*
G36*
X125592761Y-95250000D02*
X125294375Y-95449375D01*
X125095000Y-95747761D01*
X125002531Y-95609371D01*
X125454371Y-95157531D01*
X125592761Y-95250000D01*
X125592761Y-95250000D01*
G37*
X125592761Y-95250000D02*
X125294375Y-95449375D01*
X125095000Y-95747761D01*
X125002531Y-95609371D01*
X125454371Y-95157531D01*
X125592761Y-95250000D01*
G36*
X125294375Y-92510625D02*
X125592761Y-92710000D01*
X125294375Y-92909375D01*
X125095000Y-93207761D01*
X124895625Y-92909375D01*
X124597239Y-92710000D01*
X124895625Y-92510625D01*
X125095000Y-92212239D01*
X125294375Y-92510625D01*
X125294375Y-92510625D01*
G37*
X125294375Y-92510625D02*
X125592761Y-92710000D01*
X125294375Y-92909375D01*
X125095000Y-93207761D01*
X124895625Y-92909375D01*
X124597239Y-92710000D01*
X124895625Y-92510625D01*
X125095000Y-92212239D01*
X125294375Y-92510625D01*
G36*
X125187469Y-90529371D02*
X125095000Y-90667761D01*
X124895625Y-90369375D01*
X124597239Y-90170000D01*
X124735629Y-90077531D01*
X125187469Y-90529371D01*
X125187469Y-90529371D01*
G37*
X125187469Y-90529371D02*
X125095000Y-90667761D01*
X124895625Y-90369375D01*
X124597239Y-90170000D01*
X124735629Y-90077531D01*
X125187469Y-90529371D01*
G36*
X127241901Y-90239933D02*
X127137239Y-90170000D01*
X127241901Y-90100067D01*
X127241901Y-90239933D01*
X127241901Y-90239933D01*
G37*
X127241901Y-90239933D02*
X127137239Y-90170000D01*
X127241901Y-90100067D01*
X127241901Y-90239933D01*
G36*
X125294375Y-87430625D02*
X125592761Y-87630000D01*
X125454371Y-87722469D01*
X125002531Y-87270629D01*
X125095000Y-87132239D01*
X125294375Y-87430625D01*
X125294375Y-87430625D01*
G37*
X125294375Y-87430625D02*
X125592761Y-87630000D01*
X125454371Y-87722469D01*
X125002531Y-87270629D01*
X125095000Y-87132239D01*
X125294375Y-87430625D01*
G36*
X127241901Y-87699933D02*
X127137239Y-87630000D01*
X127241901Y-87560067D01*
X127241901Y-87699933D01*
X127241901Y-87699933D01*
G37*
X127241901Y-87699933D02*
X127137239Y-87630000D01*
X127241901Y-87560067D01*
X127241901Y-87699933D01*
G36*
X125592761Y-85090000D02*
X125294375Y-85289375D01*
X125095000Y-85587761D01*
X125002531Y-85449371D01*
X125454371Y-84997531D01*
X125592761Y-85090000D01*
X125592761Y-85090000D01*
G37*
X125592761Y-85090000D02*
X125294375Y-85289375D01*
X125095000Y-85587761D01*
X125002531Y-85449371D01*
X125454371Y-84997531D01*
X125592761Y-85090000D01*
G36*
X125294375Y-79810625D02*
X125592761Y-80010000D01*
X125294375Y-80209375D01*
X125095000Y-80507761D01*
X124895625Y-80209375D01*
X124597239Y-80010000D01*
X124895625Y-79810625D01*
X125095000Y-79512239D01*
X125294375Y-79810625D01*
X125294375Y-79810625D01*
G37*
X125294375Y-79810625D02*
X125592761Y-80010000D01*
X125294375Y-80209375D01*
X125095000Y-80507761D01*
X124895625Y-80209375D01*
X124597239Y-80010000D01*
X124895625Y-79810625D01*
X125095000Y-79512239D01*
X125294375Y-79810625D01*
G36*
X125294375Y-77270625D02*
X125592761Y-77470000D01*
X125294375Y-77669375D01*
X125095000Y-77967761D01*
X124895625Y-77669375D01*
X124877381Y-77657184D01*
X124922765Y-77648157D01*
X125132809Y-77507809D01*
X125273157Y-77297765D01*
X125282184Y-77252381D01*
X125294375Y-77270625D01*
X125294375Y-77270625D01*
G37*
X125294375Y-77270625D02*
X125592761Y-77470000D01*
X125294375Y-77669375D01*
X125095000Y-77967761D01*
X124895625Y-77669375D01*
X124877381Y-77657184D01*
X124922765Y-77648157D01*
X125132809Y-77507809D01*
X125273157Y-77297765D01*
X125282184Y-77252381D01*
X125294375Y-77270625D01*
G36*
X71629037Y-67440251D02*
X71592988Y-67466442D01*
X71592977Y-67466452D01*
X71283071Y-67717409D01*
X71283061Y-67717416D01*
X71225889Y-67768894D01*
X70943904Y-68050880D01*
X70943894Y-68050889D01*
X70918187Y-68079440D01*
X70892416Y-68108061D01*
X70892409Y-68108071D01*
X70641452Y-68417977D01*
X70641442Y-68417988D01*
X70626935Y-68437956D01*
X70612000Y-68458512D01*
X70612000Y-67437000D01*
X71633512Y-67437000D01*
X71629037Y-67440251D01*
X71629037Y-67440251D01*
G37*
X71629037Y-67440251D02*
X71592988Y-67466442D01*
X71592977Y-67466452D01*
X71283071Y-67717409D01*
X71283061Y-67717416D01*
X71225889Y-67768894D01*
X70943904Y-68050880D01*
X70943894Y-68050889D01*
X70918187Y-68079440D01*
X70892416Y-68108061D01*
X70892409Y-68108071D01*
X70641452Y-68417977D01*
X70641442Y-68417988D01*
X70626935Y-68437956D01*
X70612000Y-68458512D01*
X70612000Y-67437000D01*
X71633512Y-67437000D01*
X71629037Y-67440251D01*
G36*
X128778000Y-68458512D02*
X128763065Y-68437956D01*
X128748558Y-68417988D01*
X128748548Y-68417977D01*
X128497591Y-68108071D01*
X128497584Y-68108061D01*
X128446106Y-68050889D01*
X128164120Y-67768904D01*
X128164111Y-67768894D01*
X128117516Y-67726940D01*
X128106939Y-67717416D01*
X128106929Y-67717409D01*
X127797023Y-67466452D01*
X127797012Y-67466442D01*
X127760963Y-67440251D01*
X127756488Y-67437000D01*
X128778000Y-67437000D01*
X128778000Y-68458512D01*
X128778000Y-68458512D01*
G37*
X128778000Y-68458512D02*
X128763065Y-68437956D01*
X128748558Y-68417988D01*
X128748548Y-68417977D01*
X128497591Y-68108071D01*
X128497584Y-68108061D01*
X128446106Y-68050889D01*
X128164120Y-67768904D01*
X128164111Y-67768894D01*
X128117516Y-67726940D01*
X128106939Y-67717416D01*
X128106929Y-67717409D01*
X127797023Y-67466452D01*
X127797012Y-67466442D01*
X127760963Y-67440251D01*
X127756488Y-67437000D01*
X128778000Y-67437000D01*
X128778000Y-68458512D01*
M02*
