M48
;DRILL file {KiCad 5.0.0-rc1-44a33f2~62~ubuntu17.10.1} date Wed Mar 28 23:13:22 2018
;FORMAT={3:3/ absolute / metric / suppress trailing zeros}
FMAT,2
METRIC,LZ
T1C0.400
T2C1.000
%
G90
G05
M71
T1
X1125Y-108
X114Y-116
X114858Y-106508
X115045Y-089841
X115717Y-102288
X116033Y-105143
X117245Y-098735
X118505Y-097452
X128001Y-11035
T2
X080645Y-08128
X083185Y-08128
X085725Y-08128
X088265Y-08128
X090805Y-08128
X093345Y-08128
X095885Y-08128
X098425Y-08128
X100965Y-08128
X103505Y-08128
X106045Y-08128
X108585Y-08128
X111125Y-08128
X113665Y-08128
X116205Y-08128
X118745Y-08128
X080645Y-11938
X083185Y-11938
X085725Y-11938
X088265Y-11938
X090805Y-11938
X093345Y-11938
X095885Y-11938
X098425Y-11938
X100965Y-11938
X103505Y-11938
X106045Y-11938
X108585Y-11938
X111125Y-11938
X113665Y-11938
X116205Y-11938
X118745Y-11938
X123825Y-0762
X123825Y-07874
X123825Y-08128
X123825Y-08382
X123825Y-08636
X123825Y-0889
X123825Y-09144
X123825Y-09398
X123825Y-09652
X123825Y-09906
X123825Y-1016
X123825Y-10414
X123825Y-10668
X123825Y-10922
X123825Y-11176
X123825Y-1143
X123825Y-11684
X123825Y-11938
X123825Y-12192
X123825Y-12446
X126365Y-0762
X126365Y-07874
X126365Y-08128
X126365Y-08382
X126365Y-08636
X126365Y-0889
X126365Y-09144
X126365Y-09398
X126365Y-09652
X126365Y-09906
X126365Y-1016
X126365Y-10414
X126365Y-10668
X126365Y-10922
X126365Y-11176
X126365Y-1143
X126365Y-11684
X126365Y-11938
X126365Y-12192
X126365Y-12446
X078105Y-0762
X078105Y-07874
X078105Y-08128
X078105Y-11938
X078105Y-12192
X078105Y-12446
T0
M30
